<svg xmlns="http://www.w3.org/2000/svg"  viewBox="0 0 64 64" width="128px" height="128px"><path d="M 29 0 C 28.447 0 28 0.447 28 1 L 28 4.3144531 C 26.547776 4.9612776 25.424161 6.5727213 25.080078 8.6601562 C 18.680078 10.570156 14 16.519297 14 23.529297 L 14 57.869141 C 14 62.399141 25.729531 64 35.769531 64 C 45.459531 64 49.970156 63.020469 50.160156 62.980469 C 50.620156 62.870469 50.939453 62.47 50.939453 62 L 50.939453 58 C 50.939453 57.44 50.720547 56.949844 50.310547 56.589844 C 49.939547 56.254177 49.45345 56.10253 49 56.029297 L 49 46.78125 C 50.449436 46.434192 51.401335 45.968183 51.449219 45.939453 C 51.789219 45.769453 52 45.430781 52 45.050781 L 52 39.712891 C 52.844562 39.414865 53.602641 38.894195 54.228516 38.212891 C 55.320262 37.115473 56 35.602856 56 33.929688 L 56 28.5 C 56 25.22 54.189531 22.270547 51.269531 20.810547 L 48.679688 19.509766 C 47.259687 14.249766 43.130156 10.089609 37.910156 8.5996094 C 37.558987 6.5383998 36.442081 4.9518311 35 4.3125 L 35 1 C 35 0.447 34.553 0 34 0 L 29 0 z M 30 2 L 33 2 L 33 4 L 30 4 L 30 2 z M 29.419922 6 L 33.580078 6 C 34.470078 6 35.310234 6.880625 35.740234 8.140625 C 35.860234 8.510625 35.95 8.9100781 36 9.3300781 L 36 9.390625 C 35.34 9.640625 33.96 10 31.5 10 C 30.885 10 30.337187 9.9771094 29.851562 9.9394531 C 28.394687 9.8264844 27.495 9.578125 27 9.390625 L 27 9.3300781 C 27.04 8.9200781 27.13 8.5299219 27.25 8.1699219 C 27.67 6.8899219 28.519922 6 29.419922 6 z M 37.609375 10.589844 C 41.779375 11.859844 45.119531 15.120234 46.519531 19.240234 C 45.289531 19.570234 42.290859 20.269531 38.630859 20.269531 C 35.180859 20.269531 33.300859 19.879297 31.630859 19.529297 C 30.290859 19.259297 29.010703 18.99 27.220703 19 C 23.380703 19.02 20.209766 22.069219 20.009766 25.949219 C 19.979766 26.499219 20.410937 26.97 20.960938 27 C 21.500938 27.02 21.979766 26.600781 22.009766 26.050781 C 22.149766 23.230781 24.450469 21.01 27.230469 21 C 28.800469 21 29.930469 21.220234 31.230469 21.490234 C 32.990469 21.860234 34.980859 22.269531 38.630859 22.269531 C 42.520859 22.269531 45.659531 21.549922 47.019531 21.169922 C 47.139531 21.129922 47.259609 21.100313 47.349609 21.070312 L 49.140625 21.970703 L 50.369141 22.589844 C 51.712273 23.267406 52.741914 24.355647 53.357422 25.658203 C 52.651906 25.251539 51.85662 25 51 25 L 31 25 C 28.243 25 26 27.392031 26 30.332031 L 26 34.667969 C 26 35.935015 26.434104 37.08391 27.128906 38 L 26.039062 38 C 25.269063 38 24.120391 37.509453 23.400391 36.439453 C 23.200391 36.149453 22.980391 35.730547 22.900391 35.560547 C 22.900391 35.560547 22.900625 35.550781 22.890625 35.550781 C 22.890625 35.540781 22.879141 35.519766 22.869141 35.509766 C 22.699141 35.199766 22.35 34.949453 22 34.939453 C 21.62 34.939453 21.269844 35.130938 21.089844 35.460938 C 20.909844 35.790938 20.750234 36.090547 21.740234 37.560547 C 22.740234 39.040547 24.419062 40 26.039062 40 L 50 40 L 50 44.390625 C 49.49 44.590625 48.669922 44.859766 47.669922 45.009766 C 47.627061 45.016763 47.591499 45.038761 47.550781 45.050781 C 45.483924 45.357867 42.102194 45.703125 37.199219 45.703125 C 33.828219 45.703125 30.674266 45.527781 27.822266 45.175781 L 27.695312 45.167969 C 27.695312 45.167969 27.362188 45.154297 27.117188 45.154297 C 23.192188 45.154297 20 48.154797 20 51.841797 C 20 55.126797 22.613031 57.956594 26.082031 58.433594 L 26.164062 58.447266 C 29.103062 58.814266 32.362609 59 35.849609 59 C 42.376609 59 46.385359 58.397063 48.193359 58.039062 L 48.490234 57.980469 C 48.675945 57.992386 48.841465 58.019289 48.939453 58.060547 L 48.939453 61.169922 C 47.279453 61.439922 42.969531 62 35.769531 62 C 21.969531 62 16 59.269141 16 57.869141 L 16 23.529297 C 16 17.499297 19.969688 12.380625 25.429688 10.640625 C 25.609687 10.890625 25.860625 11.079219 26.140625 11.199219 C 27.040625 11.569219 28.7 12 31.5 12 C 34.29 12 35.959609 11.569219 36.849609 11.199219 C 37.159609 11.079219 37.419375 10.859844 37.609375 10.589844 z M 33.5 27 C 34.93 27 36.219219 27.549453 37.199219 28.439453 C 37.749219 28.929453 38.19 29.540703 38.5 30.220703 C 38.82 30.910703 39 31.68 39 32.5 C 39 33.32 38.82 34.089297 38.5 34.779297 C 38.19 35.459297 37.749219 36.070547 37.199219 36.560547 C 36.219219 37.450547 34.93 38 33.5 38 C 30.47 38 28 35.53 28 32.5 C 28 29.47 30.47 27 33.5 27 z M 43.5 27 C 46.53 27 49 29.47 49 32.5 C 49 35.53 46.53 38 43.5 38 C 42.07 38 40.780781 37.450547 39.800781 36.560547 C 40.560781 35.390547 41 34 41 32.5 C 41 31 40.560781 29.609453 39.800781 28.439453 C 40.780781 27.549453 42.07 27 43.5 27 z M 48.585938 27 L 51 27 C 52.654 27 54 28.494031 54 30.332031 L 54 33.505859 C 54 34.872859 53.489815 36.083012 52.703125 36.908203 C 52.487689 37.10859 52.255595 37.290356 52 37.439453 C 51.41 37.789453 50.73 37.99 50 38 L 48.585938 38 C 50.066925 36.629651 51 34.675284 51 32.5 C 51 30.324716 50.066925 28.370349 48.585938 27 z M 21 29 C 20.447 29 20 29.447 20 30 L 20 32 C 20 32.553 20.447 33 21 33 C 21.553 33 22 32.553 22 32 L 22 30 C 22 29.447 21.553 29 21 29 z M 30.160156 31.027344 C 29.804156 31.027344 29.515625 31.316875 29.515625 31.671875 L 29.515625 32.957031 C 29.515625 33.313031 29.805156 33.601562 30.160156 33.601562 L 31.447266 33.601562 C 31.802266 33.601563 32.090797 33.313031 32.091797 32.957031 L 32.091797 31.671875 C 32.091797 31.315875 31.802266 31.027344 31.447266 31.027344 L 30.160156 31.027344 z M 42.744141 31.027344 C 42.388141 31.027344 42.099609 31.316875 42.099609 31.671875 L 42.099609 32.957031 C 42.099609 33.313031 42.389141 33.601562 42.744141 33.601562 L 44.03125 33.601562 C 44.38625 33.601563 44.674781 33.313031 44.675781 32.957031 L 44.675781 31.671875 C 44.675781 31.315875 44.38625 31.027344 44.03125 31.027344 L 42.744141 31.027344 z M 27.117188 47.154297 C 27.284188 47.154297 27.499 47.163016 27.625 47.166016 C 30.545 47.523016 33.765219 47.705078 37.199219 47.705078 C 41.474785 47.705078 44.647556 47.444521 46.820312 47.171875 L 46.820312 56.251953 C 44.788814 56.586829 41.225078 57 35.849609 57 C 32.458609 57 29.297219 56.82075 26.449219 56.46875 L 26.371094 56.455078 C 23.879094 56.120078 22 54.137797 22 51.841797 C 22 49.257797 24.296187 47.154297 27.117188 47.154297 z M 25 50 C 24.448 50 24 50.448 24 51 L 24 53 C 24 53.552 24.448 54 25 54 C 25.552 54 26 53.552 26 53 L 26 51 C 26 50.448 25.552 50 25 50 z M 30 50 C 29.448 50 29 50.448 29 51 L 29 53 C 29 53.552 29.448 54 30 54 C 30.552 54 31 53.552 31 53 L 31 51 C 31 50.448 30.552 50 30 50 z M 35 50 C 34.448 50 34 50.448 34 51 L 34 53 C 34 53.552 34.448 54 35 54 C 35.552 54 36 53.552 36 53 L 36 51 C 36 50.448 35.552 50 35 50 z M 40 50 C 39.448 50 39 50.448 39 51 L 39 53 C 39 53.552 39.448 54 40 54 C 40.552 54 41 53.552 41 53 L 41 51 C 41 50.448 40.552 50 40 50 z M 45 50 C 44.448 50 44 50.448 44 51 L 44 53 C 44 53.552 44.448 54 45 54 C 45.552 54 46 53.552 46 53 L 46 51 C 46 50.448 45.552 50 45 50 z"/></svg>