<?xml version="1.0" standalone="no"?>
<!DOCTYPE svg PUBLIC "-//W3C//DTD SVG 20010904//EN"
 "http://www.w3.org/TR/2001/REC-SVG-20010904/DTD/svg10.dtd">
<svg version="1.0" xmlns="http://www.w3.org/2000/svg"
 width="100.000000pt" height="100.000000pt" viewBox="0 0 100.000000 100.000000"
 preserveAspectRatio="xMidYMid meet">

<g transform="translate(0.000000,100.000000) scale(0.100000,-0.100000)"
fill="#000000" stroke="none">
<path d="M433 977 c-23 -14 -61 -38 -85 -55 -64 -44 -159 -90 -214 -103 -93
-23 -97 -48 -18 -129 88 -89 107 -170 54 -220 -22 -21 -30 -37 -30 -63 0 -38
29 -82 60 -92 11 -4 20 -11 20 -16 0 -26 80 -168 120 -212 102 -114 218 -114
320 0 40 44 120 186 120 212 0 5 9 12 20 16 31 10 60 54 60 92 0 26 -8 42 -30
63 -55 51 -31 145 56 227 41 38 55 57 52 74 -4 26 -14 32 -92 55 -36 11 -104
47 -173 92 -134 88 -173 98 -240 59z m224 -96 c71 -49 126 -77 174 -92 l71
-22 -55 -51 c-30 -28 -56 -56 -58 -63 -3 -8 -27 -3 -79 15 -66 23 -91 26 -205
27 -112 0 -140 -3 -205 -25 -41 -13 -77 -24 -80 -25 -3 0 -31 28 -63 62 l-58
61 57 17 c71 21 123 46 239 120 113 71 122 70 262 -24z m-4 -241 c42 -10 86
-24 98 -30 20 -11 20 -12 2 -32 -41 -46 -145 -78 -253 -78 -108 0 -212 32
-253 78 -18 20 -18 21 3 32 45 24 168 49 246 49 49 1 111 -7 157 -19z m-328
-153 c41 -17 71 -21 175 -21 127 0 126 0 243 49 14 6 17 2 17 -29 0 -32 3 -36
25 -36 18 0 26 -7 31 -27 8 -31 -4 -53 -36 -70 -14 -7 -33 -35 -47 -69 -64
-150 -153 -244 -232 -244 -43 0 -110 38 -143 82 -30 39 -77 126 -101 186 -9
23 -22 42 -29 42 -6 0 -20 7 -30 17 -33 29 -17 83 24 83 14 0 18 8 18 36 0 31
3 35 18 29 9 -4 40 -17 67 -28z"/>
<path d="M463 868 c-13 -6 -23 -18 -23 -27 0 -29 39 -81 60 -81 21 0 60 52 60
81 0 16 -39 40 -63 38 -7 0 -22 -5 -34 -11z"/>
<path d="M291 427 c-21 -21 -12 -67 18 -98 50 -50 118 -33 147 37 12 29 19 34
49 34 29 0 35 -4 35 -21 0 -32 53 -79 90 -79 61 0 118 94 78 128 -18 14 -402
14 -417 -1z"/>
</g>
</svg>
