<svg xmlns="http://www.w3.org/2000/svg" id="canvas" viewBox="201.828 390.127 762.327 142.120"><path d="M 211.23,418.84 C 210.27 419.44, 210.20 420.26, 209.73 421.67 C 209.26 423.09, 209.02 423.68, 208.87 425.91 C 208.73 428.13, 208.91 429.75, 209.02 432.80 C 209.14 435.85, 209.51 437.56, 209.45 441.16 C 209.38 444.75, 209.09 446.96, 208.70 450.77 C 208.30 454.59, 208.06 456.65, 207.47 460.24 C 206.88 463.83, 206.28 465.61, 205.76 468.73 C 205.23 471.85, 204.69 473.56, 204.86 475.84 C 205.02 478.13, 205.52 479.12, 206.57 480.15 C 207.63 481.18, 208.66 481.37, 210.15 480.99 C 211.64 480.61, 212.77 480.11, 214.02 478.24 C 215.26 476.38, 215.29 474.81, 216.36 471.65 C 217.43 468.49, 217.71 466.30, 219.36 462.45 C 221.01 458.60, 222.27 456.32, 224.60 452.39 C 226.94 448.46, 228.36 446.31, 231.04 442.82 C 233.73 439.33, 235.28 437.62, 238.03 434.96 C 240.79 432.30, 242.46 431.25, 244.81 429.53 C 247.15 427.81, 248.21 427.22, 249.76 426.37 C 251.31 425.53, 251.83 425.31, 252.56 425.31 C 253.29 425.31, 253.34 425.43, 253.41 426.37 C 253.49 427.30, 253.09 427.95, 252.95 430.00 C 252.82 432.04, 252.94 433.61, 252.74 436.58 C 252.54 439.54, 252.52 441.47, 251.95 444.82 C 251.39 448.17, 250.78 450.09, 249.92 453.32 C 249.06 456.55, 248.17 458.22, 247.66 460.97 C 247.15 463.72, 246.96 465.07, 247.36 467.06 C 247.75 469.06, 248.27 470.04, 249.63 470.94 C 250.98 471.84, 252.22 472.06, 254.13 471.57 C 256.04 471.08, 257.20 470.56, 259.16 468.50 C 261.12 466.45, 261.57 464.44, 263.92 461.28 C 266.26 458.12, 267.85 456.04, 270.89 452.69 C 273.93 449.33, 275.79 447.46, 279.12 444.52 C 282.45 441.57, 284.39 440.08, 287.56 437.97 C 290.73 435.85, 292.72 435.22, 294.99 433.93 C 297.25 432.64, 297.93 431.96, 298.89 431.52 C 299.86 431.08, 299.79 431.14, 299.81 431.73 C 299.83 432.33, 299.45 432.83, 298.98 434.50 C 298.51 436.16, 298.12 437.32, 297.47 440.06 C 296.81 442.81, 296.57 444.86, 295.70 448.22 C 294.83 451.58, 294.24 453.54, 293.11 456.87 C 291.97 460.19, 290.95 461.85, 290.01 464.84 C 289.08 467.83, 288.66 469.35, 288.45 471.81 C 288.24 474.27, 288.56 475.37, 288.99 477.15 C 289.41 478.92, 289.74 479.64, 290.56 480.67 C 291.38 481.71, 292.20 482.09, 293.09 482.30 C 293.98 482.52, 294.59 482.31, 295.00 481.73 C 295.41 481.15, 295.16 480.02, 295.13 479.42 C 295.11 478.82, 294.90 478.97, 294.88 478.73 C 294.86 478.49, 295.06 478.69, 295.05 478.21 C 295.05 477.73, 294.82 477.41, 294.85 476.33 C 294.88 475.25, 294.74 474.66, 295.18 472.82 C 295.62 470.97, 296.15 469.84, 297.05 467.10 C 297.96 464.36, 298.56 462.47, 299.71 459.13 C 300.86 455.80, 301.55 453.84, 302.79 450.42 C 304.02 446.99, 305.17 445.19, 305.89 442.01 C 306.60 438.83, 306.84 437.10, 306.37 434.50 C 305.91 431.91, 305.11 430.61, 303.55 429.03 C 301.99 427.44, 300.91 426.82, 298.58 426.59 C 296.24 426.37, 294.74 426.53, 291.88 427.89 C 289.01 429.24, 287.49 430.84, 284.24 433.36 C 280.98 435.89, 279.08 437.44, 275.59 440.50 C 272.10 443.56, 270.18 445.44, 266.78 448.66 C 263.38 451.87, 261.52 453.79, 258.60 456.57 C 255.68 459.34, 253.83 460.38, 252.18 462.53 C 250.54 464.69, 250.54 465.98, 250.37 467.34 C 250.20 468.71, 250.73 469.26, 251.33 469.36 C 251.93 469.45, 252.57 469.13, 253.37 467.80 C 254.18 466.48, 254.65 465.28, 255.35 462.73 C 256.05 460.17, 256.11 458.33, 256.87 455.04 C 257.62 451.75, 258.30 449.79, 259.11 446.26 C 259.93 442.72, 260.56 440.74, 260.96 437.37 C 261.37 433.99, 261.66 432.15, 261.15 429.36 C 260.64 426.58, 259.95 425.26, 258.42 423.45 C 256.90 421.63, 255.73 420.86, 253.53 420.30 C 251.32 419.73, 249.92 419.78, 247.40 420.61 C 244.88 421.44, 243.58 422.33, 240.92 424.43 C 238.26 426.53, 236.88 428.07, 234.09 431.12 C 231.29 434.17, 229.74 435.99, 226.94 439.67 C 224.13 443.36, 222.68 445.55, 220.05 449.54 C 217.43 453.52, 216.10 455.81, 213.81 459.59 C 211.53 463.37, 210.17 465.29, 208.62 468.43 C 207.07 471.57, 206.34 473.07, 206.06 475.27 C 205.79 477.46, 206.46 478.46, 207.23 479.40 C 208.00 480.34, 208.94 480.53, 209.91 479.96 C 210.87 479.38, 211.49 478.57, 212.06 476.52 C 212.63 474.47, 212.43 472.78, 212.76 469.70 C 213.09 466.62, 213.29 464.76, 213.72 461.13 C 214.16 457.50, 214.42 455.42, 214.95 451.53 C 215.49 447.65, 215.91 445.41, 216.42 441.71 C 216.93 438.00, 217.24 436.18, 217.49 432.99 C 217.74 429.79, 217.93 428.07, 217.69 425.73 C 217.46 423.39, 216.95 422.70, 216.31 421.29 C 215.68 419.87, 215.53 419.15, 214.51 418.66 C 213.50 418.16, 212.19 418.23, 211.23 418.84" style="stroke: black; fill: black;"/><path d="M 356.07,439.52 C 355.70 438.35, 354.88 437.77, 353.44 437.11 C 351.99 436.44, 351.07 436.23, 348.85 436.18 C 346.64 436.13, 345.13 435.94, 342.36 436.85 C 339.59 437.76, 337.93 438.76, 335.00 440.73 C 332.08 442.70, 330.58 444.15, 327.73 446.69 C 324.88 449.24, 323.37 450.69, 320.75 453.45 C 318.14 456.20, 316.57 457.67, 314.66 460.47 C 312.75 463.26, 311.89 464.78, 311.19 467.42 C 310.49 470.06, 310.50 471.44, 311.15 473.65 C 311.79 475.86, 312.55 476.99, 314.42 478.47 C 316.30 479.96, 317.73 480.72, 320.52 481.06 C 323.31 481.41, 325.10 481.09, 328.37 480.18 C 331.64 479.28, 333.43 478.27, 336.88 476.55 C 340.34 474.83, 342.21 473.85, 345.64 471.58 C 349.07 469.31, 350.86 467.84, 354.03 465.20 C 357.19 462.56, 358.75 461.03, 361.46 458.40 C 364.17 455.77, 365.85 454.50, 367.56 452.05 C 369.27 449.59, 369.80 448.09, 370.01 446.13 C 370.22 444.16, 369.75 443.17, 368.63 442.22 C 367.51 441.27, 366.26 440.88, 364.42 441.39 C 362.58 441.90, 361.16 442.66, 359.43 444.76 C 357.69 446.87, 357.10 448.80, 355.76 451.91 C 354.43 455.01, 353.94 457.07, 352.74 460.30 C 351.55 463.52, 350.60 465.09, 349.79 468.02 C 348.99 470.95, 348.82 472.45, 348.71 474.95 C 348.60 477.44, 348.56 478.77, 349.24 480.50 C 349.91 482.23, 351.04 483.20, 352.09 483.60 C 353.14 483.99, 353.98 483.24, 354.48 482.46 C 354.98 481.69, 354.34 481.04, 354.58 479.74 C 354.83 478.45, 355.18 477.89, 355.72 475.99 C 356.27 474.10, 356.46 472.82, 357.30 470.27 C 358.14 467.72, 358.62 466.09, 359.91 463.23 C 361.21 460.37, 362.21 458.60, 363.78 455.96 C 365.35 453.33, 366.77 452.22, 367.75 450.08 C 368.73 447.93, 368.77 446.66, 368.68 445.24 C 368.58 443.83, 368.03 443.31, 367.27 442.99 C 366.52 442.68, 366.07 442.77, 364.91 443.68 C 363.74 444.60, 363.05 445.49, 361.44 447.56 C 359.83 449.64, 359.10 451.44, 356.86 454.06 C 354.61 456.68, 353.10 458.19, 350.20 460.66 C 347.30 463.13, 345.58 464.48, 342.37 466.39 C 339.15 468.31, 337.34 469.08, 334.15 470.24 C 330.95 471.40, 329.07 471.62, 326.39 472.19 C 323.70 472.77, 322.52 472.89, 320.71 473.12 C 318.90 473.36, 318.25 473.47, 317.34 473.36 C 316.43 473.26, 316.13 473.32, 316.16 472.60 C 316.19 471.88, 316.61 471.38, 317.49 469.77 C 318.37 468.16, 318.94 466.88, 320.57 464.53 C 322.19 462.18, 323.31 460.53, 325.63 458.03 C 327.96 455.53, 329.49 454.12, 332.19 452.02 C 334.89 449.91, 336.54 448.87, 339.11 447.50 C 341.68 446.14, 343.03 445.82, 345.05 445.17 C 347.07 444.53, 347.74 444.51, 349.21 444.30 C 350.68 444.08, 351.18 444.38, 352.40 444.10 C 353.62 443.83, 354.58 443.85, 355.31 442.93 C 356.05 442.01, 356.45 440.68, 356.07 439.52" style="stroke: black; fill: black;"/><path d="M 432.52,394.55 C 431.36 394.66, 430.64 395.05, 429.32 396.55 C 427.99 398.05, 427.34 399.09, 425.91 402.06 C 424.48 405.02, 423.90 407.28, 422.15 411.39 C 420.39 415.50, 419.40 417.96, 417.13 422.60 C 414.86 427.24, 413.36 429.80, 410.80 434.61 C 408.25 439.41, 406.79 442.00, 404.35 446.63 C 401.91 451.26, 400.69 453.66, 398.60 457.75 C 396.51 461.84, 395.53 463.79, 393.90 467.06 C 392.28 470.34, 391.36 471.74, 390.48 474.11 C 389.60 476.48, 389.62 477.40, 389.50 478.92 C 389.37 480.43, 389.60 480.94, 389.86 481.69 C 390.11 482.44, 390.42 482.42, 390.80 482.65 C 391.17 482.88, 391.32 482.86, 391.74 482.84 C 392.17 482.82, 392.34 483.01, 392.94 482.54 C 393.53 482.08, 394.01 481.74, 394.72 480.51 C 395.43 479.28, 395.62 478.63, 396.50 476.40 C 397.37 474.17, 397.79 472.66, 399.07 469.34 C 400.36 466.03, 401.07 463.94, 402.91 459.81 C 404.75 455.67, 405.91 453.28, 408.27 448.67 C 410.63 444.05, 412.06 441.48, 414.70 436.73 C 417.34 431.97, 418.91 429.42, 421.48 424.90 C 424.04 420.37, 425.25 417.99, 427.53 414.12 C 429.82 410.26, 431.36 408.49, 432.89 405.58 C 434.43 402.67, 434.76 401.50, 435.20 399.58 C 435.64 397.66, 435.64 396.98, 435.10 395.97 C 434.56 394.97, 433.68 394.43, 432.52 394.55" style="stroke: black; fill: black;"/><path d="M 388.28,442.23 C 388.91 443.12, 389.39 443.36, 391.06 443.83 C 392.72 444.31, 393.93 444.77, 396.60 444.59 C 399.28 444.40, 401.03 443.49, 404.41 442.92 C 407.79 442.34, 409.76 442.13, 413.50 441.71 C 417.24 441.29, 419.58 441.19, 423.12 440.80 C 426.66 440.41, 428.57 440.47, 431.20 439.76 C 433.82 439.06, 435.28 438.31, 436.23 437.27 C 437.18 436.23, 437.08 435.38, 435.93 434.58 C 434.78 433.78, 433.18 433.38, 430.48 433.26 C 427.78 433.14, 425.93 433.66, 422.42 433.99 C 418.91 434.32, 416.67 434.71, 412.92 434.92 C 409.18 435.13, 407.18 435.01, 403.71 435.05 C 400.23 435.09, 398.25 434.71, 395.56 435.12 C 392.87 435.53, 391.79 436.25, 390.25 437.10 C 388.72 437.95, 388.30 438.36, 387.90 439.39 C 387.51 440.41, 387.65 441.34, 388.28 442.23" style="stroke: black; fill: black;"/><path d="M 485.14,393.20 C 483.92 393.29, 483.08 393.71, 481.56 395.29 C 480.04 396.87, 479.33 398.08, 477.55 401.11 C 475.78 404.13, 474.81 406.33, 472.68 410.41 C 470.56 414.49, 469.34 417.01, 466.91 421.49 C 464.48 425.96, 463.06 428.34, 460.54 432.78 C 458.02 437.23, 456.60 439.58, 454.31 443.73 C 452.02 447.87, 450.94 449.96, 449.09 453.50 C 447.25 457.05, 446.22 458.69, 445.09 461.45 C 443.96 464.21, 443.82 465.44, 443.44 467.30 C 443.06 469.16, 442.87 469.85, 443.20 470.74 C 443.52 471.64, 444.10 472.04, 445.07 471.79 C 446.04 471.53, 446.82 471.01, 448.04 469.46 C 449.27 467.90, 449.99 466.75, 451.18 464.01 C 452.36 461.27, 452.49 459.36, 453.96 455.76 C 455.43 452.15, 456.40 450.11, 458.52 445.97 C 460.65 441.84, 462.04 439.49, 464.58 435.09 C 467.11 430.69, 468.58 428.30, 471.22 423.97 C 473.86 419.63, 475.25 417.21, 477.78 413.42 C 480.30 409.63, 481.93 407.91, 483.83 405.01 C 485.74 402.11, 486.53 400.96, 487.30 398.92 C 488.07 396.88, 488.11 395.97, 487.68 394.83 C 487.25 393.69, 486.37 393.11, 485.14 393.20" style="stroke: black; fill: black;"/><path d="M 440.83,442.98 C 441.78 443.75, 442.66 443.77, 444.64 443.83 C 446.61 443.90, 447.82 443.81, 450.70 443.32 C 453.59 442.84, 455.51 441.99, 459.07 441.43 C 462.64 440.87, 464.71 440.74, 468.53 440.52 C 472.35 440.30, 474.70 440.39, 478.16 440.34 C 481.62 440.29, 483.30 440.57, 485.82 440.28 C 488.34 439.98, 489.73 439.65, 490.76 438.86 C 491.79 438.06, 491.90 437.25, 490.97 436.29 C 490.04 435.33, 488.68 434.59, 486.11 434.06 C 483.54 433.53, 481.69 433.63, 478.12 433.63 C 474.54 433.63, 472.19 433.91, 468.24 434.04 C 464.29 434.16, 462.17 434.10, 458.37 434.26 C 454.57 434.42, 452.31 434.28, 449.22 434.85 C 446.14 435.41, 444.80 436.04, 442.94 437.07 C 441.08 438.10, 440.35 438.81, 439.92 440.00 C 439.50 441.18, 439.89 442.22, 440.83 442.98" style="stroke: black; fill: black;"/><path d="M 514.96,435.10 C 513.79 435.12, 513.10 435.49, 511.68 436.73 C 510.26 437.97, 509.28 438.93, 507.86 441.28 C 506.43 443.63, 506.06 445.45, 504.55 448.50 C 503.05 451.55, 502.06 453.54, 500.33 456.53 C 498.60 459.53, 497.26 460.94, 495.91 463.48 C 494.55 466.03, 493.89 467.36, 493.57 469.24 C 493.25 471.12, 493.45 472.02, 494.33 472.88 C 495.20 473.74, 496.32 474.07, 497.96 473.54 C 499.60 473.02, 500.90 472.28, 502.53 470.25 C 504.16 468.22, 504.36 466.23, 506.13 463.39 C 507.89 460.55, 508.96 458.79, 511.36 456.05 C 513.76 453.30, 515.30 451.94, 518.15 449.66 C 521.00 447.37, 522.69 446.29, 525.60 444.61 C 528.51 442.94, 530.14 442.36, 532.71 441.27 C 535.28 440.18, 536.36 439.71, 538.44 439.16 C 540.53 438.61, 541.40 438.57, 543.13 438.54 C 544.86 438.50, 545.73 438.95, 547.08 438.99 C 548.44 439.03, 548.93 438.92, 549.90 438.73 C 550.86 438.54, 551.33 438.59, 551.91 438.03 C 552.48 437.48, 552.87 436.78, 552.77 435.95 C 552.66 435.11, 552.30 434.62, 551.40 433.86 C 550.49 433.09, 549.93 432.58, 548.24 432.11 C 546.55 431.64, 545.25 431.43, 542.94 431.50 C 540.63 431.57, 539.30 431.78, 536.69 432.47 C 534.07 433.16, 532.75 433.58, 529.87 434.93 C 527.00 436.27, 525.42 437.22, 522.31 439.20 C 519.20 441.19, 517.47 442.39, 514.34 444.84 C 511.20 447.29, 509.58 448.72, 506.65 451.44 C 503.71 454.17, 502.10 455.76, 499.65 458.46 C 497.20 461.16, 495.66 462.53, 494.39 464.94 C 493.13 467.34, 493.15 468.80, 493.33 470.49 C 493.51 472.19, 494.14 473.01, 495.28 473.41 C 496.41 473.81, 497.49 473.68, 499.00 472.50 C 500.52 471.32, 501.33 469.97, 502.87 467.52 C 504.41 465.06, 504.98 463.23, 506.72 460.22 C 508.46 457.22, 509.69 455.37, 511.57 452.49 C 513.44 449.61, 514.82 448.30, 516.07 445.83 C 517.32 443.36, 517.51 441.99, 517.81 440.14 C 518.10 438.29, 518.11 437.61, 517.54 436.60 C 516.97 435.60, 516.13 435.07, 514.96 435.10" style="stroke: black; fill: black;"/><path d="M 580.63,435.89 C 579.40 435.90, 578.54 436.32, 576.99 437.65 C 575.44 438.98, 574.48 440.06, 572.88 442.54 C 571.27 445.02, 570.59 446.97, 568.97 450.04 C 567.35 453.12, 566.39 454.92, 564.78 457.91 C 563.17 460.90, 562.09 462.44, 560.92 464.98 C 559.76 467.51, 559.46 468.71, 558.95 470.59 C 558.43 472.48, 558.24 473.22, 558.33 474.40 C 558.43 475.57, 559.00 476.00, 559.43 476.46 C 559.86 476.93, 560.23 476.65, 560.49 476.71 C 560.74 476.77, 560.45 476.72, 560.71 476.74 C 560.97 476.76, 561.28 476.98, 561.80 476.79 C 562.32 476.61, 562.69 476.53, 563.32 475.81 C 563.95 475.09, 564.04 474.65, 564.97 473.18 C 565.89 471.72, 566.67 470.82, 567.94 468.47 C 569.21 466.12, 569.73 464.33, 571.30 461.45 C 572.87 458.57, 573.92 456.92, 575.79 454.08 C 577.67 451.25, 579.25 449.81, 580.68 447.28 C 582.12 444.74, 582.50 443.33, 582.99 441.40 C 583.48 439.47, 583.62 438.72, 583.15 437.62 C 582.67 436.52, 581.86 435.89, 580.63 435.89" style="stroke: black; fill: black;"/><path d="M 594.26,407.89 C 593.97 408.64, 593.71 408.78, 593.48 409.59 C 593.25 410.40, 593.06 411.28, 593.10 411.93 C 593.13 412.57, 593.13 413.23, 593.65 412.83 C 594.17 412.43, 594.89 411.38, 595.68 409.92 C 596.47 408.46, 597.12 407.14, 597.60 405.55 C 598.08 403.95, 598.18 402.61, 598.08 401.96 C 597.98 401.30, 597.54 401.84, 597.12 402.29 C 596.69 402.75, 596.39 403.52, 595.95 404.24 C 595.52 404.95, 595.28 405.13, 594.94 405.86 C 594.60 406.59, 594.55 407.14, 594.26 407.89" style="stroke: black; fill: black;"/><path d="M 641.27,439.72 C 641.44 438.55, 641.10 437.85, 640.11 436.58 C 639.12 435.30, 638.43 434.28, 636.30 433.35 C 634.17 432.43, 632.35 431.97, 629.48 431.94 C 626.60 431.90, 625.05 432.26, 621.93 433.18 C 618.81 434.10, 617.00 434.94, 613.88 436.54 C 610.76 438.13, 609.01 439.19, 606.34 441.15 C 603.67 443.11, 602.28 444.18, 600.55 446.34 C 598.82 448.50, 598.08 449.75, 597.67 451.97 C 597.26 454.18, 597.44 455.58, 598.50 457.41 C 599.55 459.25, 600.69 460.18, 602.94 461.15 C 605.20 462.13, 606.73 462.50, 609.77 462.28 C 612.81 462.05, 614.62 461.15, 618.14 460.02 C 621.67 458.90, 623.82 458.07, 627.38 456.66 C 630.94 455.24, 632.85 454.38, 635.94 452.95 C 639.04 451.52, 640.80 450.86, 642.85 449.49 C 644.91 448.11, 645.66 447.17, 646.22 446.07 C 646.79 444.98, 646.40 444.34, 645.67 444.01 C 644.94 443.69, 643.98 443.55, 642.58 444.45 C 641.18 445.34, 639.98 446.16, 638.68 448.51 C 637.38 450.86, 637.20 452.89, 636.10 456.21 C 635.00 459.54, 634.42 461.46, 633.19 465.15 C 631.96 468.84, 631.32 470.87, 629.94 474.66 C 628.57 478.44, 627.83 480.42, 626.31 484.06 C 624.80 487.70, 623.99 489.54, 622.37 492.84 C 620.74 496.15, 620.00 497.69, 618.18 500.60 C 616.35 503.51, 615.24 504.95, 613.24 507.41 C 611.24 509.86, 610.17 510.98, 608.16 512.89 C 606.15 514.80, 605.20 515.54, 603.19 516.94 C 601.18 518.33, 600.01 518.91, 598.12 519.87 C 596.22 520.83, 595.21 521.15, 593.73 521.75 C 592.24 522.35, 591.59 522.55, 590.69 522.86 C 589.80 523.17, 589.38 523.18, 589.26 523.29 C 589.15 523.41, 589.93 524.04, 590.13 523.43 C 590.33 522.81, 591.24 521.15, 590.27 520.24 C 589.30 519.32, 586.69 518.16, 585.28 518.84 C 583.86 519.52, 582.91 521.88, 583.18 523.64 C 583.46 525.41, 585.09 526.57, 586.66 527.68 C 588.22 528.79, 589.17 529.03, 591.01 529.20 C 592.85 529.37, 593.76 529.06, 595.84 528.54 C 597.93 528.03, 599.09 527.75, 601.44 526.64 C 603.78 525.52, 605.22 524.73, 607.56 522.96 C 609.91 521.20, 610.99 520.14, 613.15 517.82 C 615.32 515.49, 616.34 514.17, 618.38 511.34 C 620.42 508.52, 621.51 506.89, 623.35 503.69 C 625.18 500.49, 625.91 498.83, 627.55 495.34 C 629.20 491.86, 630.00 489.99, 631.57 486.27 C 633.14 482.55, 633.88 480.51, 635.41 476.76 C 636.94 473.01, 637.62 470.98, 639.20 467.51 C 640.79 464.04, 641.66 462.31, 643.32 459.41 C 644.99 456.51, 646.42 455.37, 647.52 453.01 C 648.62 450.66, 648.81 449.53, 648.83 447.66 C 648.86 445.78, 648.52 444.85, 647.64 443.66 C 646.76 442.47, 646.09 441.87, 644.42 441.70 C 642.74 441.53, 641.58 441.84, 639.27 442.81 C 636.95 443.79, 635.71 445.11, 632.84 446.58 C 629.97 448.05, 628.25 448.98, 624.92 450.18 C 621.60 451.38, 619.42 451.95, 616.20 452.58 C 612.99 453.21, 611.24 453.00, 608.85 453.33 C 606.47 453.67, 605.61 453.96, 604.28 454.24 C 602.96 454.52, 602.53 454.75, 602.24 454.72 C 601.95 454.69, 602.09 454.70, 602.84 454.08 C 603.59 453.46, 604.37 452.93, 606.00 451.63 C 607.63 450.32, 608.73 449.18, 610.99 447.56 C 613.25 445.95, 614.68 444.79, 617.31 443.57 C 619.95 442.36, 621.74 442.06, 624.17 441.49 C 626.59 440.92, 627.60 440.72, 629.44 440.70 C 631.28 440.69, 632.03 441.08, 633.37 441.42 C 634.72 441.75, 634.99 442.17, 636.16 442.37 C 637.33 442.57, 638.19 442.95, 639.21 442.42 C 640.23 441.89, 641.09 440.89, 641.27 439.72" style="stroke: black; fill: black;"/><path d="M 697.51,397.09 C 696.31 397.47, 695.65 398.21, 694.48 400.01 C 693.31 401.80, 692.82 403.07, 691.65 406.08 C 690.48 409.10, 690.11 411.32, 688.62 415.09 C 687.13 418.85, 686.09 420.91, 684.22 424.90 C 682.34 428.89, 681.21 431.12, 679.24 435.05 C 677.27 438.99, 676.25 440.94, 674.36 444.57 C 672.47 448.21, 671.44 450.09, 669.80 453.23 C 668.16 456.37, 667.18 457.85, 666.16 460.28 C 665.13 462.71, 664.78 463.71, 664.67 465.39 C 664.55 467.07, 664.69 467.79, 665.58 468.68 C 666.46 469.57, 667.49 470.06, 669.10 469.85 C 670.71 469.63, 671.84 469.24, 673.61 467.61 C 675.39 465.98, 675.88 464.32, 677.96 461.69 C 680.03 459.07, 681.31 457.25, 683.99 454.46 C 686.67 451.68, 688.40 450.14, 691.36 447.78 C 694.31 445.42, 695.92 444.22, 698.76 442.67 C 701.59 441.12, 703.18 440.81, 705.54 440.03 C 707.90 439.26, 708.92 438.95, 710.56 438.79 C 712.21 438.62, 712.78 438.73, 713.75 439.21 C 714.72 439.70, 715.05 440.17, 715.41 441.22 C 715.77 442.27, 715.84 442.82, 715.56 444.46 C 715.28 446.09, 714.81 447.13, 714.01 449.38 C 713.20 451.62, 712.52 453.17, 711.54 455.68 C 710.56 458.19, 709.63 459.50, 709.09 461.91 C 708.56 464.32, 708.34 466.33, 708.89 467.74 C 709.43 469.16, 710.46 469.51, 711.82 468.98 C 713.19 468.46, 714.13 467.04, 715.71 465.13 C 717.28 463.22, 718.32 462.07, 719.70 459.42 C 721.08 456.77, 721.88 454.87, 722.60 451.89 C 723.33 448.90, 723.58 447.26, 723.32 444.49 C 723.06 441.73, 722.65 440.21, 721.31 438.06 C 719.96 435.92, 718.74 434.91, 716.58 433.77 C 714.41 432.63, 713.13 432.46, 710.47 432.36 C 707.82 432.25, 706.30 432.27, 703.32 433.24 C 700.34 434.21, 698.72 435.25, 695.57 437.19 C 692.41 439.13, 690.79 440.47, 687.57 442.94 C 684.35 445.42, 682.61 446.97, 679.47 449.58 C 676.33 452.20, 674.47 453.61, 671.86 456.00 C 669.25 458.40, 667.75 459.47, 666.41 461.54 C 665.07 463.60, 665.05 464.88, 665.17 466.33 C 665.28 467.79, 666.04 468.53, 666.99 468.82 C 667.93 469.10, 668.75 468.88, 669.90 467.75 C 671.06 466.62, 671.66 465.57, 672.75 463.18 C 673.85 460.79, 674.07 459.04, 675.37 455.80 C 676.67 452.56, 677.54 450.66, 679.26 446.99 C 680.97 443.31, 681.96 441.34, 683.95 437.43 C 685.94 433.51, 687.09 431.33, 689.20 427.41 C 691.32 423.49, 692.56 421.48, 694.51 417.81 C 696.46 414.13, 697.66 412.12, 698.95 409.04 C 700.25 405.96, 700.69 404.60, 700.99 402.41 C 701.29 400.22, 701.15 399.17, 700.45 398.11 C 699.76 397.05, 698.70 396.71, 697.51 397.09" style="stroke: black; fill: black;"/><path d="M 754.24,456.58 C 754.43 457.54, 754.68 458.05, 755.84 458.71 C 757.00 459.37, 758.00 459.87, 760.03 459.88 C 762.06 459.89, 763.40 459.54, 766.00 458.76 C 768.61 457.99, 770.20 457.23, 773.07 456.02 C 775.95 454.81, 777.77 454.11, 780.40 452.73 C 783.02 451.35, 784.29 450.54, 786.20 449.11 C 788.10 447.69, 788.92 447.14, 789.93 445.60 C 790.95 444.06, 791.39 443.11, 791.28 441.42 C 791.16 439.73, 790.74 438.48, 789.36 437.14 C 787.98 435.80, 786.80 435.13, 784.37 434.73 C 781.95 434.32, 780.33 434.35, 777.22 435.12 C 774.11 435.88, 772.35 436.87, 768.83 438.56 C 765.30 440.26, 763.19 441.34, 759.59 443.57 C 756.00 445.81, 754.04 447.26, 750.85 449.73 C 747.67 452.20, 745.95 453.30, 743.67 455.92 C 741.38 458.53, 740.22 460.04, 739.43 462.80 C 738.63 465.56, 738.76 467.22, 739.70 469.72 C 740.63 472.22, 741.56 473.64, 744.10 475.32 C 746.63 477.00, 748.50 477.47, 752.37 478.12 C 756.24 478.77, 758.70 478.63, 763.43 478.56 C 768.16 478.50, 770.79 478.32, 776.00 477.79 C 781.22 477.26, 784.49 476.72, 789.51 475.91 C 794.54 475.10, 797.23 474.73, 801.11 473.76 C 804.99 472.79, 807.48 472.17, 808.92 471.07 C 810.36 469.97, 810.06 468.66, 808.31 468.25 C 806.56 467.84, 804.10 468.46, 800.18 469.02 C 796.27 469.59, 793.67 470.30, 788.75 471.07 C 783.82 471.84, 780.60 472.49, 775.57 472.87 C 770.53 473.24, 767.94 473.24, 763.57 472.95 C 759.19 472.67, 756.90 472.18, 753.69 471.43 C 750.48 470.68, 749.33 469.97, 747.52 469.22 C 745.71 468.46, 745.10 468.50, 744.63 467.65 C 744.16 466.81, 744.36 466.44, 745.17 464.99 C 745.99 463.54, 746.78 462.48, 748.69 460.40 C 750.59 458.32, 751.88 456.88, 754.70 454.60 C 757.52 452.31, 759.46 450.88, 762.81 449.00 C 766.16 447.11, 768.22 446.18, 771.46 445.17 C 774.70 444.17, 776.47 444.35, 779.01 443.98 C 781.55 443.61, 782.57 443.62, 784.15 443.32 C 785.74 443.02, 786.26 442.88, 786.95 442.47 C 787.63 442.07, 787.75 441.54, 787.59 441.30 C 787.43 441.06, 787.15 441.03, 786.13 441.28 C 785.12 441.52, 784.39 441.83, 782.51 442.53 C 780.63 443.23, 779.24 443.77, 776.72 444.77 C 774.19 445.76, 772.60 446.63, 769.89 447.51 C 767.18 448.39, 765.50 448.50, 763.19 449.17 C 760.88 449.84, 759.79 450.20, 758.35 450.86 C 756.91 451.51, 756.69 451.84, 755.99 452.45 C 755.29 453.07, 755.21 453.11, 754.86 453.94 C 754.51 454.76, 754.04 455.63, 754.24 456.58" style="stroke: black; fill: black;"/><path d="M 867.83,393.13 C 866.75 393.17, 866.27 393.35, 864.91 394.65 C 863.56 395.94, 862.69 396.80, 861.06 399.60 C 859.43 402.40, 858.74 404.64, 856.75 408.63 C 854.77 412.62, 853.59 415.04, 851.14 419.56 C 848.69 424.08, 847.21 426.62, 844.52 431.22 C 841.83 435.83, 840.23 438.20, 837.69 442.58 C 835.14 446.97, 833.92 449.29, 831.79 453.16 C 829.65 457.03, 828.67 458.83, 827.01 461.95 C 825.34 465.06, 824.41 466.36, 823.47 468.75 C 822.53 471.13, 822.37 472.27, 822.31 473.87 C 822.26 475.46, 822.77 476.01, 823.19 476.73 C 823.62 477.44, 824.04 477.37, 824.43 477.46 C 824.82 477.54, 824.82 477.23, 825.12 477.14 C 825.43 477.04, 825.43 477.31, 825.95 476.97 C 826.46 476.62, 826.96 476.58, 827.70 475.43 C 828.44 474.28, 828.73 473.44, 829.64 471.23 C 830.55 469.03, 830.94 467.58, 832.25 464.42 C 833.55 461.26, 834.28 459.33, 836.16 455.41 C 838.03 451.49, 839.17 449.20, 841.62 444.82 C 844.07 440.45, 845.64 438.09, 848.40 433.54 C 851.17 428.99, 852.72 426.43, 855.45 422.07 C 858.18 417.72, 859.56 415.41, 862.06 411.74 C 864.56 408.08, 866.27 406.52, 867.97 403.75 C 869.68 400.99, 870.12 399.78, 870.59 397.92 C 871.05 396.05, 870.85 395.39, 870.30 394.43 C 869.75 393.47, 868.91 393.09, 867.83 393.13" style="stroke: black; fill: black;"/><path d="M 826.50,447.54 C 827.29 448.40, 827.95 448.62, 829.86 448.89 C 831.77 449.16, 833.13 449.40, 836.04 448.89 C 838.95 448.38, 840.73 447.34, 844.41 446.33 C 848.09 445.33, 850.42 444.81, 854.43 443.85 C 858.45 442.90, 860.90 442.41, 864.49 441.54 C 868.08 440.67, 869.89 440.51, 872.37 439.51 C 874.86 438.51, 876.12 437.63, 876.91 436.54 C 877.69 435.45, 877.49 434.66, 876.29 434.05 C 875.10 433.45, 873.60 433.29, 870.94 433.52 C 868.28 433.76, 866.57 434.40, 862.99 435.22 C 859.42 436.05, 857.07 436.84, 853.06 437.65 C 849.06 438.47, 846.70 438.79, 842.97 439.30 C 839.24 439.81, 837.28 439.64, 834.43 440.20 C 831.57 440.76, 830.40 441.22, 828.71 442.10 C 827.01 442.98, 826.39 443.51, 825.95 444.60 C 825.51 445.69, 825.72 446.69, 826.50 447.54" style="stroke: black; fill: black;"/><path d="M 911.53,397.93 C 910.27 398.02, 909.47 398.60, 907.88 400.10 C 906.29 401.61, 905.38 402.64, 903.60 405.45 C 901.83 408.26, 900.95 410.42, 899.02 414.17 C 897.09 417.91, 896.16 420.09, 893.94 424.16 C 891.72 428.24, 890.46 430.37, 887.94 434.54 C 885.42 438.72, 883.82 441.06, 881.34 445.04 C 878.86 449.01, 877.69 450.97, 875.55 454.40 C 873.41 457.83, 872.25 459.41, 870.64 462.18 C 869.02 464.96, 868.27 466.35, 867.48 468.30 C 866.69 470.25, 866.79 470.79, 866.69 471.94 C 866.58 473.09, 866.69 473.45, 866.94 474.03 C 867.19 474.61, 867.65 474.75, 867.94 474.86 C 868.24 474.96, 868.18 474.52, 868.41 474.54 C 868.64 474.55, 868.59 475.02, 869.12 474.92 C 869.65 474.82, 870.26 474.80, 871.06 474.04 C 871.87 473.27, 872.11 472.86, 873.15 471.11 C 874.20 469.35, 874.88 468.05, 876.29 465.25 C 877.70 462.44, 878.35 460.60, 880.20 457.08 C 882.06 453.55, 883.18 451.61, 885.56 447.61 C 887.95 443.61, 889.52 441.26, 892.11 437.10 C 894.70 432.94, 896.04 430.77, 898.51 426.83 C 900.98 422.89, 902.14 420.82, 904.46 417.39 C 906.78 413.97, 908.28 412.39, 910.11 409.71 C 911.94 407.03, 912.78 406.01, 913.59 404.00 C 914.41 401.99, 914.59 400.86, 914.18 399.65 C 913.77 398.43, 912.79 397.83, 911.53 397.93" style="stroke: black; fill: black;"/><path d="M 868.59,443.59 C 869.06 444.58, 869.53 445.10, 870.96 445.68 C 872.39 446.27, 873.51 446.42, 875.74 446.51 C 877.97 446.61, 879.32 446.53, 882.13 446.17 C 884.93 445.82, 886.59 445.20, 889.78 444.72 C 892.96 444.24, 894.65 444.07, 898.05 443.77 C 901.44 443.46, 903.65 443.61, 906.76 443.18 C 909.88 442.75, 911.41 442.37, 913.63 441.60 C 915.84 440.84, 917.05 440.32, 917.85 439.34 C 918.64 438.36, 918.59 437.52, 917.59 436.72 C 916.60 435.91, 915.21 435.53, 912.87 435.31 C 910.54 435.08, 909.02 435.35, 905.93 435.59 C 902.84 435.84, 900.77 436.26, 897.41 436.55 C 894.05 436.84, 892.32 436.99, 889.14 437.03 C 885.96 437.08, 884.30 436.75, 881.50 436.77 C 878.69 436.78, 877.30 436.72, 875.12 437.11 C 872.94 437.50, 871.89 437.99, 870.60 438.72 C 869.30 439.44, 869.03 439.78, 868.63 440.75 C 868.23 441.73, 868.13 442.61, 868.59 443.59" style="stroke: black; fill: black;"/><path d="M 948.01,431.48 C 946.69 431.55, 945.74 432.21, 944.04 433.68 C 942.35 435.15, 941.47 436.35, 939.53 438.84 C 937.59 441.33, 936.51 443.14, 934.33 446.14 C 932.15 449.13, 930.72 450.88, 928.63 453.83 C 926.55 456.77, 925.34 458.16, 923.91 460.87 C 922.49 463.57, 922.12 465.07, 921.52 467.35 C 920.92 469.63, 920.78 470.75, 920.92 472.26 C 921.06 473.78, 921.73 474.27, 922.23 474.91 C 922.72 475.56, 922.98 475.38, 923.40 475.50 C 923.82 475.62, 923.91 475.61, 924.34 475.51 C 924.76 475.40, 925.01 475.43, 925.52 474.95 C 926.02 474.47, 926.37 474.20, 926.88 473.11 C 927.39 472.01, 927.34 471.24, 928.06 469.49 C 928.78 467.74, 929.23 466.68, 930.48 464.35 C 931.73 462.02, 932.38 460.57, 934.31 457.83 C 936.24 455.09, 937.78 453.45, 940.12 450.65 C 942.46 447.86, 944.06 446.39, 946.01 443.85 C 947.95 441.30, 948.92 440.04, 949.85 437.94 C 950.78 435.83, 951.02 434.61, 950.65 433.32 C 950.28 432.03, 949.33 431.41, 948.01 431.48" style="stroke: black; fill: black;"/><path d="M 957.91,401.14 C 957.41 401.75, 957.55 401.89, 958.14 401.36 C 958.73 400.84, 960.36 399.13, 960.85 398.52 C 961.35 397.90, 961.21 397.77, 960.62 398.29 C 960.03 398.82, 958.40 400.52, 957.91 401.14" style="stroke: black; fill: black;"/></svg>