<?xml version="1.0" standalone="no"?>
<!DOCTYPE svg PUBLIC "-//W3C//DTD SVG 20010904//EN"
 "http://www.w3.org/TR/2001/REC-SVG-20010904/DTD/svg10.dtd">
<svg version="1.0" xmlns="http://www.w3.org/2000/svg"
 width="476.000000pt" height="440.000000pt" viewBox="0 0 476.000000 440.000000"
 preserveAspectRatio="xMidYMid meet" id="icon">

<g transform="translate(0.000000,440.000000) scale(0.100000,-0.100000)"
fill="#000000" stroke="none">
<path d="M2003 3812 c-182 -62 -283 -171 -354 -382 -41 -124 -50 -259 -24
-376 19 -89 37 -124 63 -124 15 0 146 171 268 348 1 2 32 -20 68 -47 213 -161
482 -274 721 -302 171 -20 212 -5 186 67 -18 51 -74 143 -116 194 -20 24 -34
44 -32 47 2 2 35 -4 72 -12 62 -15 70 -15 84 -1 13 14 13 22 3 62 -47 174
-163 285 -333 317 -32 6 -59 14 -59 17 0 3 26 19 58 35 45 24 58 36 60 57 5
41 -44 53 -213 53 -140 0 -164 -5 -267 -50 -16 -6 -17 -3 -11 26 4 19 7 48 8
64 0 29 -2 30 -50 33 -34 1 -76 -7 -132 -26z"/>
<path d="M3347 3243 c-18 -17 -1 -44 68 -113 l75 -75 -80 -80 c-59 -59 -79
-86 -74 -98 3 -9 13 -17 21 -17 17 0 178 152 195 184 9 16 -4 33 -83 112 -89
90 -107 102 -122 87z"/>
<path d="M3653 2914 c-13 -35 23 -44 182 -44 159 0 193 8 179 43 -5 15 -25 17
-180 17 -153 0 -175 -2 -181 -16z"/>
<path d="M1573 2853 c-56 -86 23 -297 119 -318 30 -7 33 -14 42 -102 4 -43 25
-107 62 -189 3 -5 -98 -64 -223 -130 -252 -132 -301 -166 -355 -245 -43 -62
-311 -763 -328 -858 -26 -146 46 -285 204 -390 l40 -26 1121 0 c1085 0 1122 1
1150 19 74 47 143 118 175 178 29 54 35 75 38 148 l4 85 -132 355 c-150 405
-166 444 -216 511 -45 62 -122 112 -367 239 -156 80 -198 106 -194 119 3 9 17
44 32 78 14 35 28 92 32 128 6 65 6 65 47 84 23 10 54 32 69 50 66 78 78 271
17 271 -22 0 -22 0 -20 -87 1 -67 -21 -134 -57 -165 -10 -10 -37 -21 -59 -26
l-39 -8 -11 -86 c-16 -117 -37 -177 -90 -248 -104 -142 -275 -214 -448 -189
-208 29 -372 197 -398 407 -16 125 -15 122 -48 122 -85 0 -162 166 -116 249
28 51 -19 73 -51 24z m412 -791 c198 -119 458 -89 635 74 l55 51 230 -121
c261 -137 289 -157 339 -229 38 -56 309 -767 321 -844 9 -60 -11 -145 -48
-200 -18 -26 -60 -68 -95 -95 l-63 -48 -95 0 -94 0 0 198 0 197 78 45 c74 44
95 71 73 93 -7 7 -29 -1 -71 -27 -34 -20 -66 -36 -71 -36 -5 0 -9 115 -9 280
0 311 -2 323 -63 360 -31 19 -56 20 -852 20 -805 0 -821 0 -853 -20 -58 -36
-62 -58 -62 -369 l0 -279 -69 40 c-71 40 -91 42 -91 8 0 -12 26 -34 80 -67
l79 -48 1 -197 0 -198 -92 0 c-73 0 -99 4 -123 19 -63 39 -125 103 -152 159
-23 48 -28 69 -27 132 0 71 7 93 137 438 75 199 146 381 158 404 43 83 100
126 354 260 l240 127 50 -48 c28 -27 73 -63 100 -79z m1084 -347 c16 -8 34
-28 40 -46 7 -22 11 -190 11 -526 l0 -493 -862 2 -863 3 -3 485 c-2 326 1 497
8 522 20 71 -24 67 853 68 674 0 792 -2 816 -15z"/>
<path d="M1773 2854 c-3 -9 7 -57 23 -106 39 -124 45 -128 196 -128 158 0 170
6 198 103 12 39 23 78 25 85 3 6 20 12 39 12 34 0 35 -1 61 -80 38 -115 47
-120 201 -120 155 0 163 5 200 134 14 49 23 95 20 102 -4 12 -86 14 -481 14
-429 0 -476 -2 -482 -16z"/>
<path d="M3105 2658 c-3 -8 -4 -79 -3 -158 3 -137 4 -145 23 -145 19 0 20 7
20 155 0 140 -2 155 -18 158 -9 2 -19 -3 -22 -10z"/>
<path d="M3294 2661 c-48 -20 -64 -58 -64 -147 0 -94 12 -129 51 -150 33 -17
60 -18 92 -3 42 19 57 59 57 153 0 80 -2 88 -27 116 -30 32 -75 45 -109 31z
m64 -63 c7 -7 12 -42 12 -89 0 -83 -11 -103 -52 -97 -22 3 -23 8 -26 86 -3 87
5 112 37 112 9 0 22 -5 29 -12z"/>
<path d="M3515 2658 c-3 -8 -4 -79 -3 -158 3 -137 4 -145 23 -145 19 0 20 7
20 155 0 140 -2 155 -18 158 -9 2 -19 -3 -22 -10z"/>
<path d="M3704 2661 c-48 -20 -64 -58 -64 -147 0 -94 12 -129 51 -150 52 -27
115 -8 137 41 7 14 12 64 12 110 0 78 -2 87 -27 115 -30 32 -75 45 -109 31z
m65 -65 c8 -9 11 -45 9 -98 l-3 -83 -29 -3 c-16 -2 -32 2 -37 10 -13 20 -11
162 3 176 16 16 43 15 57 -2z"/>
<path d="M3342 2218 c-14 -14 -17 -275 -3 -296 5 -8 17 -12 27 -10 17 3 19 15
22 147 2 97 -1 148 -9 157 -14 17 -21 18 -37 2z"/>
<path d="M3514 2220 c-12 -4 -31 -21 -43 -37 -21 -25 -22 -37 -19 -126 3 -94
4 -100 31 -123 32 -27 75 -31 116 -9 41 21 54 61 50 159 -4 76 -7 88 -29 110
-28 27 -75 39 -106 26z m64 -62 c7 -7 12 -44 12 -95 0 -78 -2 -84 -22 -92 -46
-17 -58 2 -58 92 0 84 9 107 40 107 9 0 21 -5 28 -12z"/>
<path d="M3774 2220 c-12 -4 -31 -21 -43 -36 -18 -23 -21 -40 -21 -121 0 -91
1 -96 29 -124 47 -47 132 -33 159 26 14 31 16 163 2 199 -16 44 -84 74 -126
56z m64 -62 c13 -13 17 -156 4 -174 -15 -22 -42 -24 -62 -4 -26 26 -28 134 -4
168 17 24 43 29 62 10z"/>
<path d="M3981 2221 c-8 -5 -11 -50 -9 -157 3 -141 4 -149 23 -149 19 0 20 8
23 151 2 121 0 153 -11 157 -8 3 -19 2 -26 -2z"/>
</g>
</svg>
