<?xml version="1.0" standalone="no"?>
<!DOCTYPE svg PUBLIC "-//W3C//DTD SVG 20010904//EN"
 "http://www.w3.org/TR/2001/REC-SVG-20010904/DTD/svg10.dtd">
<svg version="1.0" xmlns="http://www.w3.org/2000/svg"
 width="1802.000000pt" height="450.000000pt" viewBox="0 0 1802.000000 450.000000"
 preserveAspectRatio="xMidYMid meet" id="name">

<g transform="translate(0.000000,450.000000) scale(0.100000,-0.100000)"
fill="#000000" stroke="none">
<path d="M5790 3250 c-22 -24 -61 -92 -96 -168 -75 -161 -173 -355 -282 -552
-121 -220 -112 -210 -182 -210 -112 0 -236 -40 -266 -86 -15 -22 -15 -26 0
-48 19 -30 105 -51 178 -44 27 3 47 2 46 -1 -2 -4 -54 -108 -116 -232 -128
-255 -149 -323 -122 -402 12 -34 20 -43 42 -45 33 -4 48 21 73 128 29 120 80
253 165 426 l79 162 113 20 c62 12 169 31 237 43 69 12 150 30 180 40 92 32
128 83 76 107 -41 19 -110 14 -291 -18 -93 -17 -182 -32 -197 -35 l-29 -5 20
33 c11 17 68 115 127 216 58 101 136 231 172 290 36 58 84 135 106 171 42 67
77 154 77 190 0 24 -34 60 -57 60 -9 0 -33 -18 -53 -40z"/>
<path d="M11221 3173 c-41 -41 -76 -107 -112 -208 -85 -243 -201 -457 -557
-1034 -127 -205 -145 -259 -101 -315 25 -32 73 -35 127 -7 40 20 74 55 168
171 137 167 381 360 556 439 130 59 282 88 294 56 9 -22 -69 -241 -138 -390
-88 -192 -101 -230 -96 -298 5 -61 33 -105 61 -94 18 7 251 478 283 574 40
119 28 217 -35 283 -54 56 -149 75 -246 49 -122 -33 -371 -189 -614 -383 -80
-64 -146 -116 -148 -116 -6 0 55 107 215 380 381 648 425 731 437 826 6 45 4
55 -14 73 -28 28 -47 27 -80 -6z"/>
<path d="M16865 3162 c-12 -9 -19 -103 -10 -131 8 -26 32 -27 39 -3 25 90 10
163 -29 134z"/>
<path d="M6805 3128 c-54 -32 -90 -80 -165 -227 -80 -158 -315 -576 -339 -605
-12 -14 -36 -16 -170 -14 -143 2 -161 0 -214 -21 -62 -24 -82 -49 -72 -88 14
-59 160 -70 354 -27 l23 5 -25 -43 c-73 -126 -188 -352 -206 -406 -12 -34 -24
-88 -27 -120 -6 -50 -4 -59 15 -76 17 -16 27 -18 49 -10 23 8 33 25 70 129 66
187 80 220 156 374 39 79 80 149 91 156 21 13 193 29 487 44 132 7 176 13 212
30 45 19 56 40 38 67 -26 40 -134 46 -357 20 -71 -8 -172 -18 -223 -22 l-93
-7 84 140 c118 196 225 356 291 437 64 77 88 120 106 184 9 37 9 48 -5 68 -17
26 -48 31 -80 12z"/>
<path d="M14472 3050 c-47 -29 -83 -85 -176 -274 -73 -148 -211 -395 -299
-534 l-27 -42 -138 1 c-120 2 -144 -1 -192 -20 -83 -33 -112 -78 -72 -114 9
-8 46 -21 82 -27 53 -10 81 -9 150 3 47 8 86 14 87 13 1 0 -15 -28 -34 -61
-76 -129 -163 -313 -178 -380 -26 -108 -10 -185 37 -185 33 0 47 25 83 149 19
67 44 145 56 173 24 61 134 285 152 309 10 14 53 20 217 34 113 10 239 25 280
35 73 18 76 17 96 -1 31 -29 122 -34 242 -14 56 9 106 15 111 13 5 -1 -13 -40
-40 -85 -143 -242 -202 -375 -215 -484 -8 -73 6 -109 45 -109 15 0 34 6 40 13
6 8 31 76 56 152 70 217 225 520 270 530 36 8 223 16 550 24 273 6 326 10 362
25 48 20 65 52 38 72 -35 26 -127 37 -250 31 -66 -4 -217 -11 -335 -17 -118
-7 -234 -10 -258 -8 l-43 3 115 173 c63 95 141 207 173 250 79 104 98 137 117
203 22 76 11 109 -37 109 -55 0 -109 -68 -205 -255 -46 -88 -127 -232 -180
-320 l-98 -160 -175 -5 c-166 -5 -178 -6 -227 -32 -48 -25 -54 -26 -79 -13
-36 19 -150 19 -318 0 -71 -8 -138 -15 -148 -15 -13 0 -5 19 40 93 123 200
256 402 318 483 65 85 95 155 95 220 0 52 -41 72 -88 44z"/>
<path d="M9143 2964 c-38 -30 -40 -39 -13 -54 15 -8 29 -6 59 10 44 22 60 40
37 40 -9 0 -15 6 -13 12 4 23 -38 18 -70 -8z"/>
<path d="M1964 2572 c-76 -27 -172 -101 -330 -255 l-143 -139 35 87 c58 143
65 233 21 256 -27 15 -59 -4 -85 -50 -12 -20 -43 -100 -70 -176 -90 -253 -154
-398 -277 -624 -40 -75 -76 -151 -80 -169 -15 -74 40 -125 93 -85 39 29 57 58
115 183 77 168 127 255 213 370 134 181 314 351 472 449 66 41 138 68 149 58
13 -14 -26 -254 -58 -352 -17 -55 -62 -165 -100 -245 -37 -80 -71 -163 -74
-185 -11 -80 39 -118 113 -85 41 18 71 53 194 220 83 114 239 267 373 368 161
121 373 219 452 210 37 -4 41 -40 14 -145 -39 -150 -73 -239 -171 -438 -54
-110 -103 -218 -109 -240 -29 -108 6 -221 63 -199 8 3 30 53 50 116 20 60 87
217 151 348 147 305 169 369 163 473 -4 67 -9 82 -34 114 -50 62 -78 77 -148
81 -48 3 -81 -1 -129 -17 -117 -39 -348 -196 -541 -367 -49 -44 -108 -96 -133
-117 l-43 -39 19 51 c11 27 27 66 35 85 31 74 57 189 57 250 0 110 -52 191
-138 215 -50 14 -59 14 -119 -7z"/>
<path d="M8005 2403 c-102 -14 -232 -72 -356 -159 l-77 -54 9 38 c13 55 11 70
-11 92 -31 31 -49 25 -105 -33 -38 -39 -67 -86 -109 -173 -83 -173 -153 -290
-209 -352 -85 -94 -118 -211 -73 -261 24 -26 50 -27 92 0 42 26 64 56 118 167
125 251 383 485 636 574 31 11 103 23 163 28 60 5 115 14 123 21 8 7 14 24 12
38 -5 45 -123 86 -213 74z"/>
<path d="M4082 2355 c-238 -52 -692 -402 -802 -619 -24 -48 -30 -72 -30 -126
0 -90 34 -146 114 -185 53 -26 63 -27 144 -22 137 8 339 92 567 236 61 38 111
68 112 68 1 -1 -9 -33 -23 -72 -43 -127 -24 -244 46 -280 58 -30 100 -15 100
37 0 20 -8 31 -30 43 -16 9 -30 21 -30 28 1 44 91 238 156 333 26 38 65 95 86
127 92 136 104 227 31 227 -50 0 -108 -48 -171 -140 -94 -140 -390 -339 -617
-417 -77 -26 -225 -53 -293 -53 -97 0 -104 35 -35 160 86 153 296 342 478 430
92 44 210 74 285 71 36 -1 96 -3 135 -4 66 -2 70 -1 82 24 28 58 -26 113 -137
138 -58 13 -90 13 -168 -4z"/>
<path d="M16474 2334 c-63 -42 -92 -74 -151 -164 -31 -47 -105 -153 -164 -236
-158 -220 -203 -329 -165 -402 17 -33 52 -50 68 -34 6 6 19 33 28 61 38 106
210 350 379 536 57 63 111 163 111 207 0 31 -23 58 -49 58 -10 0 -36 -12 -57
-26z"/>
<path d="M9715 2307 c-84 -28 -156 -64 -250 -124 -149 -96 -222 -178 -245
-274 -10 -43 -10 -57 4 -93 30 -80 107 -126 207 -126 84 0 329 89 548 199 45
23 85 40 88 37 8 -8 -121 -402 -172 -527 -126 -309 -273 -536 -423 -654 -106
-84 -268 -155 -352 -155 -61 0 -93 17 -153 85 -32 36 -67 65 -77 65 -56 0 -68
-90 -21 -160 32 -48 96 -95 150 -110 65 -18 174 -12 258 15 117 37 196 88 309
200 176 175 305 401 484 850 50 127 110 264 133 305 106 194 119 236 92 294
-32 67 -76 61 -220 -35 -235 -154 -397 -219 -628 -249 -100 -13 -127 -13 -127
1 0 18 110 127 181 180 156 115 329 160 492 127 49 -10 63 -10 85 3 55 30 35
89 -45 136 -42 24 -59 28 -148 30 -83 3 -112 -1 -170 -20z"/>
<path d="M8758 2262 c-41 -42 -73 -93 -118 -181 -34 -68 -86 -163 -116 -211
-70 -113 -122 -223 -132 -280 -17 -92 24 -146 73 -100 13 13 57 84 97 159 40
74 120 205 176 290 123 185 132 200 148 271 17 69 4 104 -42 108 -25 3 -39 -6
-86 -56z"/>
<path d="M12685 2291 c-244 -74 -504 -229 -635 -379 -97 -109 -123 -243 -68
-348 67 -128 188 -175 451 -174 242 0 456 28 702 89 211 53 315 104 315 152 0
42 -63 36 -250 -22 -273 -85 -477 -115 -719 -106 -162 6 -234 22 -324 70 -100
53 -109 102 -36 214 84 129 240 247 414 314 109 43 213 60 331 57 l99 -3 -115
-57 c-140 -69 -292 -121 -422 -143 -53 -8 -116 -22 -141 -31 -80 -27 -82 -90
-5 -130 52 -27 200 -15 311 25 326 118 467 221 467 344 0 50 -37 98 -99 130
-73 36 -153 36 -276 -2z"/>
</g>
</svg>
