<?xml version="1.0" standalone="no"?>
<!DOCTYPE svg PUBLIC "-//W3C//DTD SVG 20010904//EN"
 "http://www.w3.org/TR/2001/REC-SVG-20010904/DTD/svg10.dtd">
<svg version="1.0" xmlns="http://www.w3.org/2000/svg"
 width="1834.000000pt" height="492.000000pt" viewBox="0 0 1834.000000 492.000000"
 preserveAspectRatio="xMidYMid meet" id="name">

<g transform="translate(0.000000,492.000000) scale(0.100000,-0.100000)"
fill="#000000" stroke="none">
<path d="M5013 3880 c-28 -12 -47 -78 -38 -139 3 -25 17 -97 31 -159 14 -63
26 -148 27 -190 1 -43 5 -79 8 -82 6 -4 51 -622 46 -626 -1 -1 -66 -11 -144
-22 -142 -21 -195 -39 -240 -82 -23 -21 -29 -55 -15 -78 10 -15 66 -32 108
-32 26 0 189 38 280 65 20 6 22 2 28 -52 40 -372 68 -602 77 -636 24 -91 81
-155 118 -132 19 11 12 139 -15 256 -42 186 -58 289 -88 546 l-6 51 157 37
c545 127 732 192 835 293 77 74 86 142 19 142 -15 0 -68 -24 -118 -54 -125
-74 -206 -111 -358 -161 -122 -41 -396 -107 -496 -121 l-46 -6 -6 68 c-10 109
-27 715 -24 869 2 116 -1 148 -16 188 -25 64 -63 81 -124 57z"/>
<path d="M6303 3808 c-37 -47 -41 -162 -9 -284 26 -101 36 -228 43 -531 l6
-293 -55 0 c-79 0 -221 -27 -273 -51 -87 -41 -121 -112 -70 -145 34 -22 107
-15 258 26 61 16 120 30 130 30 15 0 17 -12 17 -112 1 -170 29 -758 38 -798
14 -55 33 -80 64 -80 55 0 65 67 39 280 -27 219 -40 378 -48 575 l-6 162 94
12 c200 26 323 32 565 29 205 -2 254 0 268 11 45 37 -14 91 -121 111 -81 16
-349 8 -622 -18 l-183 -17 3 490 c3 451 2 494 -15 540 -21 59 -38 75 -82 75
-17 0 -36 -6 -41 -12z"/>
<path d="M14570 3807 c-13 -7 -30 -24 -37 -37 -20 -40 -15 -152 12 -268 33
-144 54 -322 80 -683 l7 -86 -144 -6 c-154 -6 -196 -14 -249 -50 -27 -18 -35
-31 -37 -59 -4 -43 18 -62 81 -73 30 -6 37 -11 32 -24 -4 -9 -14 -47 -22 -86
-21 -93 -51 -159 -102 -223 -188 -237 -716 -381 -1066 -292 -112 29 -177 62
-239 120 -107 101 -122 203 -50 349 56 114 160 214 284 274 116 56 212 79 304
75 l69 -3 -52 -57 c-54 -59 -236 -188 -356 -252 -94 -50 -130 -79 -145 -116
-25 -59 27 -117 95 -104 100 18 446 280 520 393 128 195 -54 359 -311 280 -85
-26 -126 -47 -229 -113 -111 -72 -196 -154 -259 -250 -77 -115 -99 -187 -94
-301 5 -84 12 -110 56 -197 2 -5 -14 -8 -35 -8 -21 0 -65 -12 -98 -25 -35 -14
-63 -21 -68 -16 -15 15 -25 90 -37 267 -13 202 -25 305 -47 376 -94 317 -375
390 -643 167 -72 -60 -197 -224 -268 -351 l-50 -89 -6 43 c-3 24 -11 196 -17
383 -14 473 -33 747 -55 813 -45 137 -147 151 -161 21 -5 -55 3 -106 47 -269
45 -168 72 -540 68 -935 -3 -207 -2 -223 19 -267 23 -51 46 -68 91 -68 71 0
139 86 187 238 68 212 208 386 370 457 135 60 215 7 264 -175 25 -93 39 -180
46 -290 14 -225 43 -329 109 -396 94 -95 266 -80 313 27 17 38 18 40 33 22 19
-21 37 -33 105 -69 237 -126 622 -123 990 6 345 122 564 358 568 612 l1 67 89
21 c49 11 92 20 96 20 5 0 11 -44 15 -97 11 -158 46 -453 61 -521 25 -106 77
-182 125 -182 46 0 41 75 -16 276 -27 97 -61 310 -70 446 -7 96 -7 97 17 102
13 3 134 24 269 46 271 44 531 105 600 140 25 12 63 37 86 56 l41 33 7 -67
c11 -122 12 -120 -36 -126 -213 -24 -246 -33 -300 -84 -33 -30 -36 -64 -8 -92
28 -28 96 -26 231 6 61 15 113 24 116 20 3 -3 8 -47 9 -98 2 -51 10 -181 18
-288 20 -262 38 -353 79 -397 25 -28 41 -29 67 -3 28 28 26 76 -10 269 -16 89
-34 219 -40 289 -5 70 -12 155 -15 190 -4 46 -2 64 7 67 25 8 336 44 473 54
77 6 222 13 323 16 l183 5 -15 -27 c-24 -48 -39 -182 -38 -338 1 -160 16 -260
53 -346 36 -82 95 -106 124 -49 14 26 13 38 -2 122 -24 135 -24 376 1 493 21
102 18 145 -17 196 -57 84 -129 92 -512 55 -148 -15 -317 -31 -375 -36 -58 -5
-129 -12 -158 -16 l-53 -6 1 409 c2 350 0 415 -14 459 -22 71 -59 100 -104 83
-54 -20 -65 -124 -32 -301 17 -94 40 -301 40 -366 0 -18 -4 -22 -19 -17 -10 3
-63 -10 -117 -29 -55 -19 -144 -51 -200 -70 -125 -45 -331 -89 -534 -114 -85
-11 -156 -19 -158 -17 -7 6 -23 341 -31 640 -5 169 -14 316 -20 337 -13 41
-56 98 -74 98 -7 0 -23 -6 -37 -13z"/>
<path d="M16812 3634 c-64 -45 36 -113 109 -73 18 9 17 12 -22 50 -45 43 -55
46 -87 23z"/>
<path d="M9253 3489 c-51 -19 -11 -53 62 -53 50 -1 75 7 63 20 -18 17 -105 41
-125 33z"/>
<path d="M1503 3271 c-110 -28 -231 -130 -314 -266 l-46 -75 -7 62 c-4 34 -14
75 -22 90 -13 24 -20 29 -47 26 -61 -6 -87 -102 -87 -317 0 -181 -15 -336 -50
-506 -49 -238 -72 -388 -67 -438 8 -90 72 -134 123 -86 35 32 44 78 44 215 0
141 32 415 61 529 53 205 159 413 267 522 72 71 163 123 218 123 106 0 218
-144 269 -344 47 -185 55 -342 28 -521 -25 -163 -23 -218 6 -249 30 -31 50
-33 85 -5 40 32 52 63 85 227 33 162 57 234 116 352 81 160 168 266 283 341
153 100 229 93 296 -30 78 -144 104 -288 111 -626 4 -137 11 -279 16 -315 22
-137 111 -237 193 -216 40 10 43 43 8 80 -69 72 -76 112 -96 546 -22 447 -53
570 -172 679 -84 77 -163 96 -279 66 -165 -43 -323 -206 -470 -487 l-55 -103
0 52 c0 70 -36 274 -62 353 -51 157 -118 245 -223 295 -64 30 -154 41 -212 26z"/>
<path d="M3775 2986 c-119 -31 -215 -93 -335 -216 -138 -143 -245 -338 -270
-495 -31 -193 61 -359 234 -422 56 -20 169 -19 241 2 97 28 212 92 283 158 17
17 32 28 32 23 0 -24 170 193 226 290 9 16 13 8 23 -51 20 -121 61 -267 93
-335 44 -91 136 -182 202 -199 82 -20 146 5 146 59 0 36 -15 46 -75 53 -43 4
-55 11 -87 46 -42 48 -101 182 -129 296 -15 61 -22 128 -26 280 -4 163 -9 208
-24 243 -10 23 -22 42 -28 42 -6 0 -26 24 -44 53 -48 73 -91 111 -170 148 -57
26 -83 32 -155 35 -52 2 -107 -2 -137 -10z m207 -146 c45 -13 88 -56 119 -120
13 -26 32 -50 41 -53 21 -6 15 -63 -18 -164 -80 -244 -287 -450 -510 -507
-191 -49 -301 17 -312 188 -3 48 1 93 12 136 18 70 83 210 97 210 5 0 9 6 9
14 0 25 143 168 211 211 124 80 255 111 351 85z"/>
<path d="M10106 2939 c-224 -56 -387 -214 -442 -430 -21 -82 -14 -202 15 -281
36 -93 135 -190 229 -222 l35 -12 -48 -40 c-27 -21 -90 -80 -141 -131 -300
-300 -376 -645 -204 -934 50 -85 166 -204 263 -273 151 -106 372 -195 535
-215 282 -36 503 101 589 363 48 149 43 503 -13 880 -8 55 -12 106 -9 114 3 8
1 20 -4 26 -16 21 -46 395 -35 451 5 30 13 38 52 55 70 31 112 67 112 96 0 38
-39 49 -124 35 -58 -10 -71 -9 -78 2 -4 8 -21 20 -37 27 -37 15 -61 4 -121
-61 -40 -42 -62 -54 -190 -104 -80 -32 -194 -82 -253 -112 l-109 -55 -76 4
c-183 11 -282 132 -253 313 38 244 278 411 507 352 89 -23 128 -51 195 -138
67 -89 104 -114 143 -99 46 17 46 97 1 176 -31 53 -118 132 -177 162 -52 25
-180 59 -248 64 -25 2 -76 -4 -114 -13z m647 -927 c86 -452 112 -685 105 -935
-4 -140 -9 -173 -31 -242 -31 -93 -79 -169 -137 -215 -283 -224 -944 37 -1082
428 -81 233 28 522 287 758 142 129 206 170 276 178 139 16 346 96 474 184 33
23 62 42 65 42 3 0 22 -89 43 -198z"/>
<path d="M7905 2921 c-114 -19 -215 -79 -286 -168 -19 -23 -39 -37 -54 -38
-67 -2 -101 -96 -92 -255 3 -58 11 -148 17 -200 5 -52 14 -178 19 -280 8 -192
22 -254 64 -288 24 -20 67 -10 90 19 35 48 39 110 16 242 -32 189 -40 317 -28
447 16 187 50 271 128 323 56 37 111 49 235 49 174 0 288 -32 541 -149 175
-81 241 -101 274 -83 65 34 -21 124 -202 210 -277 133 -554 198 -722 171z"/>
<path d="M9158 2700 c-9 -6 -24 -33 -33 -60 -14 -43 -16 -85 -13 -260 1 -116
6 -210 11 -210 4 0 7 -39 7 -87 1 -125 16 -265 35 -323 21 -62 63 -100 112
-100 84 0 149 83 119 154 -17 41 -28 48 -70 48 l-33 0 -11 82 c-7 50 -9 194
-6 378 4 254 2 303 -11 335 -9 20 -21 41 -28 45 -17 11 -59 9 -79 -2z"/>
</g>
</svg>
