<svg xmlns="http://www.w3.org/2000/svg"  viewBox="0 0 80 80" width="240px" height="240px"><path d="M 22.912109 9 C 19.960756 9 16.358303 9.7221658 13.375 11.421875 C 10.391697 13.121584 8 15.945797 8 19.863281 C 8 23.912396 10.891498 29.481134 13.701172 34.283203 C 16.296271 38.718537 18.669822 42.066616 19.050781 42.601562 C 17.846834 43.88996 17.980826 45.617638 18.001953 46.048828 C 18.091373 47.889143 19.090293 49.025828 20.119141 50.009766 C 21.147988 50.993703 22.29396 52.003168 23.417969 54.146484 C 23.539513 54.378162 24.004424 55.269066 24.628906 56.189453 C 25.24048 57.090816 25.918145 58.062135 27 58.542969 L 27 62 A 1.0001 1.0001 0 1 0 29 62 L 29 58.896484 C 29.354145 58.891575 29.868383 58.864096 30.429688 58.5625 C 31.787375 57.836032 31.951153 56.396403 31.988281 56.148438 A 1.0001 1.0001 0 1 0 30.011719 55.851562 C 29.992849 55.977598 29.808687 56.625296 29.484375 56.798828 A 1.0001 1.0001 0 0 0 29.484375 56.800781 C 29.32398 56.886961 29.109495 56.908203 28.824219 56.908203 C 28.42168 56.908203 28.114506 56.845583 27.839844 56.730469 A 1.0001 1.0001 0 0 0 27.837891 56.730469 C 27.590274 56.626904 26.829471 55.871519 26.283203 55.066406 C 25.736935 54.261294 25.312909 53.452119 25.189453 53.216797 C 23.919462 50.795113 22.489106 49.508516 21.501953 48.564453 C 20.5148 47.62039 20.058624 47.197857 19.998047 45.951172 C 19.976167 45.504675 19.999847 44.424134 20.576172 43.884766 C 21.028522 43.465344 21.714425 43.416172 22.232422 43.408203 C 23.766212 43.383873 24.938922 44.373548 25.3125 44.726562 A 1.0002743 1.0002743 0 1 0 26.6875 43.273438 C 26.275119 42.883757 25.089926 41.848234 23.351562 41.519531 C 23.684054 41.310892 24.051927 41.094628 24.453125 40.890625 C 25.797547 40.207705 29.03107 39.122361 33.191406 38.230469 C 33.362903 39.669244 33.848762 40.995803 34.662109 41.990234 C 35.637853 43.183182 36.971947 44 38.431641 44 L 47 44 L 47 43.970703 C 47.165836 43.983009 47.331031 44 47.5 44 C 51.713438 44 55 40.110516 55 35.5 C 55 35.333552 54.986972 35.170279 54.978516 35.005859 C 55.073803 35.01009 56.315831 35.06789 58.087891 35.404297 C 59.928007 35.753621 62.199459 36.410722 63.869141 37.503906 C 65.629152 38.655646 66.920293 40.814446 67.544922 42.654297 C 67.845362 43.539246 67.971865 44.326947 67.982422 44.830078 C 67.8245 44.776948 67.775568 44.787958 67.476562 44.662109 C 66.877167 44.409819 66.00089 44.047905 64.669922 43.699219 C 63.396201 43.366066 62.05944 43.286417 60.980469 43.095703 C 59.901498 42.904989 59.211917 42.607238 58.945312 42.208984 C 58.739458 41.900705 58.727505 41.54692 58.730469 41.353516 L 58.730469 41.351562 C 58.747339 40.563466 59.456845 39.915621 59.625 39.78125 A 1.0004882 1.0004882 0 1 0 58.375 38.21875 C 58.105295 38.434268 56.766737 39.493484 56.730469 41.3125 A 1.0001 1.0001 0 0 0 56.730469 41.316406 C 56.729579 41.371576 56.669939 42.401916 57.283203 43.320312 A 1.0001 1.0001 0 0 0 57.283203 43.322266 C 58.065599 44.491012 59.390783 44.844917 60.632812 45.064453 C 61.206024 45.165771 61.701344 45.250974 62.261719 45.326172 A 1.0001 1.0001 0 0 0 62.365234 45.669922 C 62.365234 45.669922 64.86532 50.149397 70.380859 52.326172 C 70.066178 52.387382 69.842456 52.467172 69.421875 52.509766 C 67.775834 52.676464 65.347141 52.681641 61.869141 52.681641 C 60.410926 52.681641 59.025939 52.816151 57.824219 53.234375 C 56.622499 53.652599 55.548945 54.41984 55.070312 55.630859 A 1.0001 1.0001 0 1 0 56.929688 56.367188 C 57.147056 55.817206 57.616939 55.425526 58.480469 55.125 C 59.343999 54.824474 60.544355 54.681641 61.869141 54.681641 C 62.686115 54.681641 63.272154 54.67395 63.980469 54.671875 C 63.991735 54.744254 64 54.705608 64 55 C 64 55.437053 63.877671 55.664997 63.5625 55.982422 C 63.247329 56.299847 62.713826 56.63574 62.078125 56.990234 C 60.806723 57.699222 59.073341 58.493869 58.189453 60.285156 C 56.857013 62.98452 55.733424 64.124354 53.070312 65.472656 C 51.996454 66.016788 51.078649 66.994555 50.269531 68.115234 C 49.460414 69.235914 48.788791 70.501858 48.398438 71.6875 A 1.0001 1.0001 0 1 0 50.296875 72.3125 C 50.602522 71.384142 51.198696 70.24818 51.892578 69.287109 C 52.58646 68.326039 53.408468 67.542727 53.974609 67.255859 C 56.877498 65.786161 58.534815 64.106558 59.984375 61.169922 C 60.491487 60.142209 61.715387 59.48209 63.052734 58.736328 C 63.721408 58.363447 64.404296 57.972872 64.980469 57.392578 C 65.556642 56.812284 66 55.971947 66 55 C 66 54.863078 65.984562 54.780633 65.980469 54.662109 C 67.402198 54.642097 68.628908 54.600673 69.623047 54.5 C 71.455256 54.314448 72.78119 53.916388 73.710938 52.974609 A 1.0001 1.0001 0 0 0 73.199219 51.291016 C 68.046363 50.247259 65.904396 47.324169 65.021484 45.927734 C 65.635572 46.129085 66.311463 46.339874 66.701172 46.503906 C 67.290277 46.751872 67.803666 47 68.490234 47 C 69.069103 47 69.600788 46.524089 69.783203 46.121094 C 69.965618 45.718098 70 45.334232 70 44.916016 C 70 44.079583 69.804185 43.091793 69.4375 42.011719 C 68.93179 40.522147 68.087632 38.874396 66.859375 37.494141 C 67.586499 36.16648 68 34.528283 68 32.751953 C 68 30.707785 67.458226 28.840877 66.513672 27.423828 C 65.569118 26.00678 64.148 25 62.5 25 C 62.198677 25 61.907673 25.043753 61.623047 25.107422 C 60.608562 23.557292 58.772228 22.865658 57.222656 22.474609 C 55.724809 22.096614 54.696278 22.068044 54.404297 22.054688 C 53.369258 20.624763 51.713906 19.85094 50.222656 19.474609 C 48.853601 19.129115 48.072381 19.115957 47.646484 19.091797 C 46.698895 17.029339 44.859694 15.934026 43.265625 15.457031 C 41.714286 14.992823 40.640372 15.046519 40.339844 15.052734 C 40.200011 14.970291 37.831103 13.568401 34.46875 12.085938 C 31.009066 10.56056 26.67809 9 22.912109 9 z M 22.912109 11 C 26.103129 11 30.317543 12.43944 33.662109 13.914062 C 36.591489 15.205629 38.559962 16.332428 39.078125 16.632812 C 39.031274 16.749234 39 16.874603 39 17 C 39 17.26 39.109063 17.520937 39.289062 17.710938 L 39.439453 17.830078 C 39.499453 17.870078 39.559141 17.899922 39.619141 17.919922 C 39.679141 17.949922 39.740781 17.970469 39.800781 17.980469 C 39.870781 17.990469 39.94 18 40 18 C 40.26 18 40.520938 17.890937 40.710938 17.710938 C 40.879411 17.533105 40.977202 17.29191 40.990234 17.048828 C 41.462183 17.094999 42.05333 17.182117 42.691406 17.373047 C 44.090367 17.791659 45.481694 18.583147 46.050781 20.3125 A 1.0001 1.0001 0 0 0 46.136719 20.503906 C 46.115766 20.542254 46.092861 20.580793 46.080078 20.619141 C 46.050078 20.679141 46.029531 20.740547 46.019531 20.810547 C 46.009531 20.870547 46 20.94 46 21 C 46 21.26 46.109063 21.520937 46.289062 21.710938 C 46.479062 21.890938 46.74 22 47 22 C 47.13 22 47.260859 21.979922 47.380859 21.919922 C 47.510859 21.869922 47.620937 21.800937 47.710938 21.710938 C 47.86877 21.544337 47.957243 21.320799 47.980469 21.09375 C 48.470812 21.153682 49.078329 21.246548 49.734375 21.412109 C 51.191603 21.779855 52.640369 22.505079 53.103516 23.443359 A 1.0001 1.0001 0 0 0 53.966797 24 C 53.966797 24 55.277147 24.04436 56.734375 24.412109 C 57.726571 24.6625 58.706905 25.080934 59.382812 25.617188 C 58.824296 25.86258 58.539744 25.98812 57.689453 26.361328 C 56.959362 26.681778 56.226486 27.003639 55.669922 27.248047 C 55.113358 27.492455 54.829216 27.614987 54.699219 27.673828 L 54.695312 27.675781 L 54.691406 27.677734 C 53.992541 28.001013 53.204998 28.546857 52.652344 29.335938 C 51.318755 27.899257 49.518306 27 47.5 27 C 46.088192 27 44.784831 27.445042 43.669922 28.199219 L 43.619141 28.074219 C 43.619141 28.074219 41.839903 28.806549 40.052734 29.541016 C 39.15915 29.908249 38.263012 30.277439 37.587891 30.554688 C 37.25033 30.69331 36.967179 30.808775 36.767578 30.890625 C 36.667778 30.931555 36.589701 30.964028 36.535156 30.986328 C 36.507886 30.997478 36.486666 31.006019 36.472656 31.011719 L 36.46875 31.013672 C 34.671404 31.696821 33.47822 33.590501 33.173828 36.177734 C 28.67056 37.106859 25.2554 38.241503 23.546875 39.109375 C 21.798376 39.998459 20.656347 40.983978 20.472656 41.144531 C 19.868962 40.289449 17.808667 37.342736 15.427734 33.273438 C 12.672408 28.564256 10 22.859167 10 19.863281 C 10 16.735766 11.783287 14.629244 14.365234 13.158203 C 16.947182 11.687162 20.298462 11 22.912109 11 z M 19 16 A 2 2 0 0 0 19 20 A 2 2 0 0 0 19 16 z M 35.697266 16.384766 C 35.567734 16.369922 35.433281 16.379922 35.300781 16.419922 C 34.770781 16.579922 34.470859 17.139922 34.630859 17.669922 C 34.760859 18.099922 35.159844 18.380859 35.589844 18.380859 C 35.679844 18.380859 35.779141 18.369844 35.869141 18.339844 C 36.399141 18.179844 36.700781 17.619609 36.550781 17.099609 C 36.430781 16.702109 36.085859 16.429297 35.697266 16.384766 z M 31.787109 18.501953 C 31.532109 18.481953 31.270547 18.560234 31.060547 18.740234 C 30.640547 19.100234 30.589219 19.740156 30.949219 20.160156 C 31.149219 20.390156 31.430937 20.5 31.710938 20.5 C 31.940937 20.5 32.169375 20.419766 32.359375 20.259766 C 32.779375 19.899766 32.830703 19.269609 32.470703 18.849609 C 32.290703 18.639609 32.042109 18.521953 31.787109 18.501953 z M 43.460938 20.029297 C 42.900937 20.079297 42.489297 20.549609 42.529297 21.099609 C 42.569297 21.629609 42.999297 22.029297 43.529297 22.029297 L 43.599609 22.029297 C 44.149609 21.989297 44.559531 21.510938 44.519531 20.960938 C 44.479531 20.410937 44.010937 19.999297 43.460938 20.029297 z M 40.207031 20.570312 C 40.0775 20.557344 39.943047 20.569375 39.810547 20.609375 C 39.280547 20.779375 38.990391 21.339375 39.150391 21.859375 C 39.280391 22.289375 39.679375 22.570312 40.109375 22.570312 C 40.199375 22.570312 40.300391 22.549531 40.400391 22.519531 C 40.930391 22.359531 41.220547 21.799531 41.060547 21.269531 C 40.940547 20.872031 40.595625 20.609219 40.207031 20.570312 z M 28.90625 22.005859 C 28.808594 22.015547 28.711641 22.040078 28.619141 22.080078 C 28.499141 22.130078 28.389063 22.199063 28.289062 22.289062 C 28.109062 22.479062 28 22.74 28 23 C 28 23.13 28.030078 23.260859 28.080078 23.380859 C 28.130078 23.510859 28.199063 23.610937 28.289062 23.710938 C 28.389062 23.800938 28.499141 23.869922 28.619141 23.919922 C 28.739141 23.969922 28.87 24 29 24 C 29.26 24 29.520938 23.890938 29.710938 23.710938 C 29.800938 23.610938 29.869922 23.510859 29.919922 23.380859 C 29.979922 23.260859 30 23.13 30 23 C 30 22.74 29.890937 22.479063 29.710938 22.289062 C 29.500937 22.079062 29.199219 21.976797 28.90625 22.005859 z M 37.169922 22.267578 C 36.914922 22.252578 36.654219 22.334531 36.449219 22.519531 C 36.039219 22.889531 35.999141 23.519453 36.369141 23.939453 C 36.569141 24.159453 36.839141 24.269531 37.119141 24.269531 C 37.349141 24.269531 37.589297 24.179766 37.779297 24.009766 C 38.189297 23.639766 38.229375 23.009609 37.859375 22.599609 C 37.674375 22.394609 37.424922 22.282578 37.169922 22.267578 z M 18.5 24 A 1.5 1.5 0 0 0 18.5 27 A 1.5 1.5 0 0 0 18.5 24 z M 34.800781 25.019531 C 34.740781 25.029531 34.679141 25.050078 34.619141 25.080078 C 34.559141 25.100078 34.499453 25.129922 34.439453 25.169922 C 34.389453 25.199922 34.339062 25.249063 34.289062 25.289062 C 34.109062 25.479062 34 25.74 34 26 C 34 26.26 34.109063 26.520937 34.289062 26.710938 C 34.339063 26.750938 34.389453 26.800078 34.439453 26.830078 C 34.499453 26.870078 34.559141 26.899922 34.619141 26.919922 C 34.679141 26.949922 34.740781 26.970469 34.800781 26.980469 C 34.870781 26.990469 34.94 27 35 27 C 35.06 27 35.129219 26.990469 35.199219 26.980469 C 35.259219 26.970469 35.320859 26.949922 35.380859 26.919922 C 35.440859 26.899922 35.500547 26.870078 35.560547 26.830078 C 35.610547 26.800078 35.660938 26.750937 35.710938 26.710938 C 35.750938 26.660938 35.800078 26.610547 35.830078 26.560547 C 35.870078 26.500547 35.899922 26.440859 35.919922 26.380859 C 35.949922 26.320859 35.970469 26.259219 35.980469 26.199219 C 35.990469 26.129219 36 26.06 36 26 C 36 25.94 35.990469 25.870781 35.980469 25.800781 C 35.970469 25.740781 35.949922 25.679141 35.919922 25.619141 C 35.899922 25.559141 35.870078 25.499453 35.830078 25.439453 C 35.800078 25.389453 35.750937 25.339063 35.710938 25.289062 C 35.660937 25.249062 35.610547 25.199922 35.560547 25.169922 C 35.500547 25.129922 35.440859 25.100078 35.380859 25.080078 C 35.320859 25.050078 35.259219 25.029531 35.199219 25.019531 C 35.069219 24.989531 34.930781 24.989531 34.800781 25.019531 z M 62.5 27 C 63.337 27 64.165413 27.504798 64.849609 28.53125 C 65.533805 29.557702 66 31.068121 66 32.751953 C 66 34.00733 65.737519 35.160765 65.320312 36.09375 C 65.200872 36.006694 65.089403 35.911589 64.964844 35.830078 C 63.115425 34.619215 60.926832 33.96549 59.054688 33.570312 C 59.029888 33.300341 59 33.032794 59 32.751953 C 59 31.068121 59.466195 29.557702 60.150391 28.53125 C 60.834587 27.504798 61.663 27 62.5 27 z M 57.916016 28.445312 C 57.328962 29.690383 57 31.166369 57 32.751953 C 57 32.906001 57.009389 33.055718 57.015625 33.207031 C 55.772365 33.037808 54.913216 33 54.912109 33 A 1.0001 1.0001 0 0 0 54.673828 33.027344 C 54.498232 32.374737 54.249591 31.758461 53.947266 31.179688 L 53.982422 31.185547 C 54.0947 30.58994 54.973824 29.750039 55.53125 29.492188 C 55.45871 29.525108 55.922938 29.320384 56.474609 29.078125 C 56.871683 28.903755 57.404225 28.670009 57.916016 28.445312 z M 47.5 29 C 50.466269 29 53 31.826245 53 35.5 C 53 39.173755 50.466269 42 47.5 42 C 44.533731 42 42 39.173755 42 35.5 C 42 31.826245 44.533731 29 47.5 29 z M 40.976562 31.322266 C 40.355891 32.56516 40 33.991941 40 35.5 C 40 38.077287 41.028118 40.426794 42.669922 42 L 38.431641 42 C 37.756334 42 36.895938 41.562119 36.210938 40.724609 C 35.525937 39.8871 35.042969 38.697103 35.042969 37.390625 C 35.042969 34.679516 36.061342 33.310422 37.177734 32.884766 C 37.177734 32.884766 37.179688 32.882812 37.179688 32.882812 C 37.226627 32.865252 37.212823 32.868871 37.226562 32.863281 C 37.242672 32.856681 37.265109 32.849281 37.292969 32.837891 C 37.348679 32.815111 37.427234 32.781294 37.527344 32.740234 C 37.727564 32.658134 38.009936 32.542986 38.347656 32.404297 C 39.023097 32.126919 39.918835 31.757892 40.8125 31.390625 C 40.894854 31.35678 40.894409 31.356021 40.976562 31.322266 z M 52.027344 45.986328 A 1.0001 1.0001 0 0 0 51.001953 47.056641 C 51.12024 49.123838 50.810157 50.953649 50.085938 52.595703 A 1.0001 1.0001 0 0 0 50.083984 52.597656 C 49.747402 53.362036 49.483444 53.693798 49.085938 54.595703 C 48.224157 56.549649 47.86824 58.719838 48.001953 61.056641 A 1.0001 1.0001 0 1 0 49.998047 60.943359 C 49.87976 58.876162 50.189842 57.046351 50.914062 55.404297 A 1.0001 1.0001 0 0 0 50.916016 55.402344 C 51.249338 54.645539 51.513827 54.312598 51.914062 53.404297 C 52.775843 51.450351 53.13176 49.280162 52.998047 46.943359 A 1.0001 1.0001 0 0 0 52.027344 45.986328 z M 27.988281 47.988281 A 1.0001 1.0001 0 0 0 27.167969 49.554688 C 27.834713 50.554304 28.500713 51.554304 29.167969 52.554688 A 1.0001 1.0001 0 1 0 30.832031 51.445312 C 30.165287 50.445696 29.499287 49.445696 28.832031 48.445312 A 1.0001 1.0001 0 0 0 27.988281 47.988281 z M 28 64.330078 C 27.45 64.330078 27 64.780078 27 65.330078 C 27 65.890078 27.45 66.330078 28 66.330078 C 28.55 66.330078 29 65.890078 29 65.330078 C 29 64.780078 28.55 64.330078 28 64.330078 z M 28 67.669922 C 27.45 67.669922 27 68.119922 27 68.669922 C 27 69.219922 27.45 69.669922 28 69.669922 C 28.55 69.669922 29 69.219922 29 68.669922 C 29 68.119922 28.55 67.669922 28 67.669922 z M 28.09375 71.005859 C 27.800781 70.976797 27.499063 71.079062 27.289062 71.289062 L 27.169922 71.439453 C 27.129922 71.499453 27.100078 71.559141 27.080078 71.619141 C 27.050078 71.679141 27.029531 71.740781 27.019531 71.800781 C 27.009531 71.870781 27 71.93 27 72 C 27 72.13 27.030078 72.260859 27.080078 72.380859 C 27.130078 72.500859 27.199063 72.610938 27.289062 72.710938 C 27.479062 72.890937 27.74 73 28 73 C 28.13 73 28.260859 72.969922 28.380859 72.919922 C 28.500859 72.869922 28.610937 72.800938 28.710938 72.710938 C 28.800938 72.610937 28.869922 72.500859 28.919922 72.380859 C 28.969922 72.260859 29 72.13 29 72 C 29 71.93 28.990469 71.870781 28.980469 71.800781 C 28.970469 71.740781 28.949922 71.679141 28.919922 71.619141 C 28.899922 71.559141 28.870078 71.499453 28.830078 71.439453 L 28.710938 71.289062 C 28.610938 71.199063 28.500859 71.130078 28.380859 71.080078 C 28.288359 71.040078 28.191406 71.015547 28.09375 71.005859 z"/></svg>