<svg height="571pt" preserveAspectRatio="xMidYMid meet" viewBox="0 0 700 571" width="700pt" xmlns="http://www.w3.org/2000/svg"><g transform="matrix(.1 0 0 -.1 0 571)"><path d="m1092 4878c-5-7-17-40-27-73-22-76-52-135-109-212-28-39-53-63-65-63-27 0-44-26-37-55 6-23 21-30 55-25 17 2 51 42 120 139l53 76-5-275c-3-151-11-291-17-311-14-49 1-92 32-87 14 2 25 13 30 33 12 40 26 825 16 848-10 20-31 22-46 5z"/><path d="m2167 4779c-110-26-183-116-124-153 22-14 51 3 55 33 4 27 39 50 92 62 62 14 120-15 149-73 32-66 28-87-26-140-58-55-85-70-129-70-52 0-65 16-62 76 3 48 2 51-21 51-19 0-27-7-34-30-13-44-25-467-14-482 28-37 89 5 67 46-5 11-10 78-10 149v128h63c80 0 128 25 196 101 45 51 51 63 51 103-1 83-54 162-132 194-41 18-64 18-121 5z"/><path d="m3850 4597c-32-14-67-21-117-21-98-2-113-16-83-77 19-41 21-54 14-169-8-158 4-228 47-264 55-47 140-43 188 8 39 41 1 76-45 41-21-16-81-20-102-6-28 17-43 150-19 168 6 6 31 13 54 17 66 10 114 36 111 61-3 23-42 33-62 16-7-6-34-14-60-17l-46-7v66c0 70 14 97 50 97 32 0 126 39 145 60 15 16 15 22 5 35-16 19-25 18-80-8z"/><path d="m2990 4595c-17-20-29-141-29-292-1-67-6-144-13-172-13-59-1-84 41-79 26 3 26 4 28 103 2 55 7 176 12 270 8 129 7 171-2 177-17 11-23 10-37-7z"/><path d="m3374 4590c-63-25-125-193-126-341-3-218 133-302 256-157 40 46 43 59 20 79-13 11-22 6-61-34-49-51-85-66-107-48-74 62-54 336 31 433 21 23 43 11 43-23 0-35 30-55 60-39 40 22 11 102-45 126-39 16-42 16-71 4z"/><path d="m2502 4529c-73-36-90-60-68-94 15-23 15-37 1-328-4-83-3-89 18-96 12-5 29-5 39 0 14 8 16 24 11 126l-4 118 49 23c59 26 103 28 124 5 27-31 55-96 61-142 6-51 25-75 51-65 45 17-24 226-87 265-18 10-36 20-41 22s1 22 13 45c30 59 25 119-13 144-26 17-95 7-154-23zm128-51c0-33-48-108-76-119-41-15-44-12-44 49 0 51 3 60 23 70 60 29 97 29 97 0z"/><path d="m1264 4052c-40-27-7-100 38-83 32 12 36 54 6 75-25 18-29 19-44 8z"/><path d="m1906 3895c-19-19-21-51-3-62 6-4 44-8 82-9 39-1 196-11 350-23 562-42 724-51 943-51 141 0 222-4 222-10 0-13 46-13 71 0 22 12 25 43 7 58-8 6-150 12-353 15-187 3-396 10-465 16-200 17-242 20-490 37-215 14-264 20-326 39-13 4-27 1-38-10z"/><path d="m1878 3794c-20-6-31-34-23-56 7-17 60-32 76-22 5 3 182-6 392-20 210-13 506-30 657-36s311-15 355-20 117-9 162-9c45-1 85-5 88-11 9-14 58-13 73 2 17 17 15 46-5 56-10 5-90 12-178 16-88 3-207 10-265 16-58 5-233 14-390 20-346 12-802 44-900 63-14 3-33 3-42 1z"/><path d="m976 2959c-41-28-47-35-44-63 3-27 7-31 33-31 23 0 33 7 43 28 33 68 82 31 82-62 0-71-68-277-139-421-84-170-77-180 119-180 117 0 141 3 160 18 13 10 19 23 15 33-5 13-25 15-140 11-98-3-135-1-135 7 0 6 20 51 44 99s64 149 90 225c65 194 63 303-6 351-34 24-70 19-122-15z"/><path d="m5300 2971c-5-11-10-56-10-101 0-92-8-113-50-135-27-14-30-14-49 11-23 29-28 83-11 115 15 26-4 59-33 59-38 0-47-18-41-84 13-138 66-196 148-162 43 18 42 21 51-134 8-152 18-190 50-190 30 0 39 27 26 77-6 21-15 104-21 184-9 129-8 151 6 185 20 46 22 140 5 172-15 28-56 29-71 3z"/><path d="m4920 2934c-19-9-93-32-165-53-142-42-167-60-139-99 19-28 64-30 71-3 6 25 30 34 37 15 10-25 28-245 22-261-10-26 13-54 41-51 35 4 52 32 35 58-6 11-12 41-12 67 0 46-16 172-25 203-3 11 21 23 100 48 103 34 126 51 104 78-14 17-25 17-69-2z"/><path d="m2253 2878c-4-7-7-114-6-237 2-123 0-222-3-219-6 6-143 231-207 341-30 51-45 67-62 67-13 0-26-8-30-17-3-10-3-132 1-271 6-232 8-254 25-263 13-7 26-6 40 2 18 9 20 16 14 47-9 46-22 352-15 352 3 0 51-75 105-166 115-192 143-215 181-143 12 24 14 71 11 271-4 236-5 243-25 246-11 2-24-3-29-10z"/><path d="m4420 2875c-7-9-9-24-5-37s17-88 29-167c16-109 25-147 38-155s21-7 30 2 9 35-3 119c-8 60-14 135-14 168s-4 66-8 73c-11 17-52 15-67-3z"/><path d="m4098 2850c-50-34-109-113-128-174-16-50-8-151 15-196 24-49 63-88 109-112 78-40 202-7 250 68 33 50-12 74-55 28-38-41-77-57-124-51-56 6-89 31-120 91-33 66-33 126 1 194 47 95 151 157 169 102 4-11 18-28 31-37 23-14 26-14 44 2 30 27 24 50-22 84-57 42-108 42-170 1z"/><path d="m2896 2848c-3-7-7-33-11-58-3-25-39-133-80-240-63-169-71-198-60-215 30-48 75-24 73 39-1 58 16 96 44 96 13 0 50 9 82 20 33 11 60 20 61 20s14-27 30-60c31-65 44-75 71-56 16 12 16 17-14 79-18 36-32 72-32 79 0 8-7 24-16 37-9 12-35 78-58 144-35 104-44 122-64 125-12 2-24-3-26-10zm61-219 22-60-34-15c-19-8-42-11-53-6-18 7-18 9 6 75 14 37 28 67 31 67s16-27 28-61z"/><path d="m3285 2827c-51-20-104-57-110-77-3-11-2-27 3-37s15-58 22-108c14-104 30-149 58-164 16-9 24-7 37 5 14 15 14 19-5 50-12 18-20 44-18 56 5 36 69 37 120 2 47-33 118-111 118-130 0-7 8-17 17-23 21-12 53 3 53 25 0 25-86 130-135 165l-45 32 35 39c24 26 35 48 35 69 0 37-24 85-49 99-26 13-98 12-136-3zm115-62c29-35-33-106-107-121-28-5-33-3-37 17-3 13-2 40 2 59 6 28 15 37 42 47 48 16 85 16 100-2z"/><path d="m2610 2756c-20-8-75-20-124-27-95-15-113-28-97-71 5-13 12-48 15-78 10-76 43-178 72-222 22-34 29-38 68-38 32 0 54 8 84 30 46 33 50 41 27 60-13 11-23 9-54-8-55-31-69-28-91 21-11 23-20 47-20 53s26 17 58 23c53 10 102 39 102 60 0 5-7 14-16 22-13 10-20 10-42-3-25-15-63-22-103-19-11 1-19 13-23 35-8 43 1 65 28 71 11 2 46 9 76 15 31 6 70 19 88 30 28 17 31 23 22 40-12 23-21 24-70 6z"/><path d="m1336 2324c-19-18-20-28-6-55 20-37 80-15 80 30 0 14-29 41-45 41-7 0-21-7-29-16z"/><path d="m960 1432c-46-22-86-92-70-122 22-40 89-15 77 30-10 38 58 64 104 40 12-7 19-21 19-41 0-37-72-119-105-119-12 0-34-10-49-21-21-16-26-28-24-53 4-41 32-45 81-11 64 43 118 29 170-45 27-38 22-107-11-156-49-74-80-104-127-124-59-25-85-26-85-1s-26 34-45 15c-20-21-19-57 3-77 24-22 100-22 150-2 46 20 140 119 172 181 25 51 30 118 11 166-13 35-68 96-103 114l-29 15 22 30c23 33 35 94 25 134-14 57-115 83-186 47z"/><path d="m2470 1419c-51-30-61-46-48-75 6-13 17-24 23-24 8 0 14-52 19-177 4-98 7-192 6-209-1-38 21-58 54-50 30 7 36 31 19 73-18 46-18 144 1 137 25-9 154 35 198 69 24 18 51 49 62 70 17 36 17 40 1 83-30 79-111 123-230 124-54 0-78-5-105-21zm198-54c88-37 106-92 47-143-41-37-131-68-169-58l-27 7 3 104 3 105h53c29 0 69-7 90-15z"/><path d="m3380 1409c-82-33-139-164-128-293 5-66 24-95 93-148 89-67 166-73 231-16 38 34 43 53 16 67-14 7-25 4-47-15-16-13-39-27-52-30-32-9-105 30-149 78-37 41-37 41-31 111 7 86 47 174 82 183 30 7 46-2 38-22-6-16 23-54 42-54 15 0 45 33 45 49 0 20-43 72-72 87-31 16-34 16-68 3z"/><path d="m2984 1402c-6-4-30-45-52-92-37-77-58-141-97-295-7-27-16-58-19-67-8-16 24-58 43-58 25 0 42 33 36 71-7 43-17 38 107 62l67 13 18-43c19-45 33-56 58-47 19 8 19 37 1 72-31 61-89 230-102 301-16 82-31 103-60 83zm56-304c-7-9-111-30-118-24-7 8 18 106 41 160l21 49 31-89c17-49 28-92 25-96z"/><path d="m3955 1398c-22-5-77-8-122-5-93 5-106-1-102-55 1-18 1-97 0-175-2-124 1-149 18-188 15-34 29-49 55-60 73-31 152-14 195 41 26 33 26 41 1 54-16 8-25 5-50-20-23-23-40-30-69-30-55 0-82 25-88 83-7 55 7 77 48 77 49 0 128 21 151 40 21 17 22 20 7 35-14 15-22 15-51 6-19-6-59-12-89-14l-54-2-3 49c-6 93-3 96 88 96 82 0 125 12 135 38 5 14-11 43-24 41-3-1-24-5-46-11z"/><path d="m2040 1388c-47-13-70-36-70-68 0-36 7-40 119-80 99-35 142-64 166-111 32-62 9-121-60-153-48-23-148-38-199-31-35 6-42 10-42 28 1 31-42 35-72 7-29-27-28-56 3-76 42-27 233-24 305 4 127 51 170 139 121 247-29 64-91 108-207 145-59 19-61 28-10 35 37 6 51 4 66-10 41-37 95 9 63 54-12 18-24 21-81 20-37 0-83-5-102-11z"/><path d="m1338 864c-11-23-10-29 11-45 21-17 26-18 45-6 41 27 27 77-20 77-17 0-28-9-36-26z"/></g></svg>